<svg xmlns="http://www.w3.org/2000/svg" width="292.23" height="228.655" viewBox="0 0 292.23 228.655">
  <g id="Audio_Stream" transform="translate(-257.799 -271.696)">
    <g id="Group_586" data-name="Group 586" transform="translate(518.068 322.725)">
      <rect id="Rectangle_148" data-name="Rectangle 148" width="7.427" height="2.543" transform="translate(0 10.174)" fill="#42566b"/>
      <rect id="Rectangle_149" data-name="Rectangle 149" width="2.543" height="7.427" transform="translate(10.174)" fill="#42566b"/>
      <rect id="Rectangle_150" data-name="Rectangle 150" width="2.543" height="7.427" transform="translate(10.174 15.464)" fill="#42566b"/>
      <rect id="Rectangle_151" data-name="Rectangle 151" width="7.427" height="2.543" transform="translate(15.464 10.174)" fill="#42566b"/>
    </g>
    <g id="Group_598" data-name="Group 598" transform="translate(258.799 352.037)">
      <g id="Group_591" data-name="Group 591" transform="translate(24.067)">
        <g id="Group_590" data-name="Group 590">
          <rect id="Rectangle_152" data-name="Rectangle 152" width="182.256" height="120.088" transform="translate(39.236 7.944)" fill="#fff"/>
          <g id="Group_589" data-name="Group 589">
            <g id="Group_587" data-name="Group 587">
              <path id="Path_451" data-name="Path 451" d="M492.167,330.1H304.011a6.907,6.907,0,0,0-6.859,7.14V466.735H499.029V337.244A6.9,6.9,0,0,0,492.167,330.1Zm-2.461,128.032H307.614V338.044H489.706Z" transform="translate(-268.213 -330.104)" fill="#c5dade" stroke="#43566b" stroke-miterlimit="10" stroke-width="2"/>
              <path id="Path_452" data-name="Path 452" d="M276.213,428.98v3.527a7,7,0,0,0,6.852,7.135H529.113a7,7,0,0,0,6.855-7.135V428.98Z" transform="translate(-276.213 -292.329)" fill="#c5dade" stroke="#43566b" stroke-miterlimit="10" stroke-width="2"/>
              <line id="Line_107" data-name="Line 107" x1="182.091" transform="translate(39.401 20.822)" fill="#c5dade" stroke="#43566b" stroke-miterlimit="10" stroke-width="2"/>
              <line id="Line_108" data-name="Line 108" x2="47.814" transform="translate(46.777 14.485)" fill="none" stroke="#43566b" stroke-miterlimit="10" stroke-width="2" stroke-dasharray="4 1"/>
              <line id="Line_109" data-name="Line 109" x2="47.814" transform="translate(165.327 14.485)" fill="none" stroke="#43566b" stroke-miterlimit="10" stroke-width="2" stroke-dasharray="4 1"/>
            </g>
            <g id="Group_588" data-name="Group 588" transform="translate(66.133 40.994)">
              <path id="Path_453" data-name="Path 453" d="M324.065,421.939v-21.87l14.4-18.405,14.219,12.575L366.53,381.3l14.216,23.148,13.67-37.545,15.668,17.5,13.123-6.2,14.04,12.21,14.207-20.955v53.214Z" transform="translate(-324.065 -357.04)" fill="#1193c2"/>
              <line id="Line_110" data-name="Line 110" y1="64.981" transform="translate(14.31)" fill="none" stroke="#43566b" stroke-miterlimit="10" stroke-width="0.5" stroke-dasharray="4 1"/>
              <line id="Line_111" data-name="Line 111" y1="64.981" transform="translate(28.458)" fill="none" stroke="#43566b" stroke-miterlimit="10" stroke-width="0.5" stroke-dasharray="4 1"/>
              <line id="Line_112" data-name="Line 112" y1="64.981" transform="translate(42.605)" fill="none" stroke="#43566b" stroke-miterlimit="10" stroke-width="0.5" stroke-dasharray="4 1"/>
              <line id="Line_113" data-name="Line 113" y1="64.981" transform="translate(56.752)" fill="none" stroke="#43566b" stroke-miterlimit="10" stroke-width="0.5" stroke-dasharray="4 1"/>
              <line id="Line_114" data-name="Line 114" y1="64.981" transform="translate(70.899)" fill="none" stroke="#43566b" stroke-miterlimit="10" stroke-width="0.5" stroke-dasharray="4 1"/>
              <line id="Line_115" data-name="Line 115" y1="64.981" transform="translate(85.046)" fill="none" stroke="#43566b" stroke-miterlimit="10" stroke-width="0.5" stroke-dasharray="4 1"/>
              <line id="Line_116" data-name="Line 116" y1="64.981" transform="translate(99.193)" fill="none" stroke="#43566b" stroke-miterlimit="10" stroke-width="0.5" stroke-dasharray="4 1"/>
              <line id="Line_117" data-name="Line 117" y1="64.981" transform="translate(113.34)" fill="none" stroke="#43566b" stroke-miterlimit="10" stroke-width="0.5" stroke-dasharray="4 1"/>
              <line id="Line_118" data-name="Line 118" y1="64.981" transform="translate(127.487)" fill="none" stroke="#43566b" stroke-miterlimit="10" stroke-width="0.5" stroke-dasharray="4 1"/>
              <line id="Line_119" data-name="Line 119" y1="64.981" fill="none" stroke="#43566b" stroke-miterlimit="10" stroke-width="0.5" stroke-dasharray="4 1"/>
            </g>
          </g>
        </g>
      </g>
      <g id="Group_596" data-name="Group 596" transform="translate(0 68.613)">
        <rect id="Rectangle_153" data-name="Rectangle 153" width="121.169" height="39.168" fill="#fff" stroke="#43566b" stroke-miterlimit="10" stroke-width="2"/>
        <rect id="Rectangle_154" data-name="Rectangle 154" width="15.142" height="15.142" transform="translate(1.743 1.739)" fill="#77c04b"/>
        <g id="Group_595" data-name="Group 595" transform="translate(21.218 9.939)">
          <g id="Group_592" data-name="Group 592" transform="translate(0 15.887)">
            <rect id="Rectangle_155" data-name="Rectangle 155" width="29.227" height="3.245" fill="#adc2c5"/>
            <rect id="Rectangle_156" data-name="Rectangle 156" width="17.421" height="3.245" transform="translate(31.542)" fill="#adc2c5"/>
            <rect id="Rectangle_157" data-name="Rectangle 157" width="17.422" height="3.245" transform="translate(51.649)" fill="#adc2c5"/>
          </g>
          <g id="Group_593" data-name="Group 593" transform="translate(0 7.943)">
            <rect id="Rectangle_158" data-name="Rectangle 158" width="39.332" height="3.245" fill="#adc2c5"/>
            <rect id="Rectangle_159" data-name="Rectangle 159" width="25.451" height="3.245" transform="translate(42.633)" fill="#adc2c5"/>
            <rect id="Rectangle_160" data-name="Rectangle 160" width="19.265" height="3.245" transform="translate(71.501)" fill="#adc2c5"/>
          </g>
          <g id="Group_594" data-name="Group 594">
            <rect id="Rectangle_161" data-name="Rectangle 161" width="36.711" height="3.245" fill="#adc2c5"/>
            <rect id="Rectangle_162" data-name="Rectangle 162" width="49.316" height="3.245" transform="translate(40.656)" fill="#adc2c5"/>
          </g>
        </g>
      </g>
      <g id="Group_597" data-name="Group 597" transform="translate(199.508 37.092)">
        <rect id="Rectangle_163" data-name="Rectangle 163" width="90.722" height="56.707" fill="#f19827" stroke="#44566b" stroke-miterlimit="10" stroke-width="2"/>
        <line id="Line_120" data-name="Line 120" x2="21.149" transform="translate(9.781 11.456)" fill="none" stroke="#fff" stroke-miterlimit="10" stroke-width="2"/>
        <line id="Line_121" data-name="Line 121" x2="21.149" transform="translate(35.688 11.456)" fill="none" stroke="#fff" stroke-miterlimit="10" stroke-width="2"/>
        <line id="Line_122" data-name="Line 122" x2="36.481" transform="translate(9.781 20.18)" fill="none" stroke="#fff" stroke-miterlimit="10" stroke-width="2"/>
        <line id="Line_123" data-name="Line 123" x2="21.149" transform="translate(51.021 20.18)" fill="none" stroke="#fff" stroke-miterlimit="10" stroke-width="2"/>
        <line id="Line_124" data-name="Line 124" x2="18.241" transform="translate(9.781 28.652)" fill="none" stroke="#fff" stroke-miterlimit="10" stroke-width="2"/>
        <line id="Line_125" data-name="Line 125" x2="38.076" transform="translate(34.094 28.652)" fill="none" stroke="#fff" stroke-miterlimit="10" stroke-width="2"/>
        <line id="Line_126" data-name="Line 126" x2="36.481" transform="translate(9.781 37.124)" fill="none" stroke="#fff" stroke-miterlimit="10" stroke-width="2"/>
        <line id="Line_127" data-name="Line 127" x2="30.666" transform="translate(41.504 37.124)" fill="none" stroke="#fff" stroke-miterlimit="10" stroke-width="2"/>
        <line id="Line_128" data-name="Line 128" x2="36.481" transform="translate(9.781 45.596)" fill="none" stroke="#fff" stroke-miterlimit="10" stroke-width="2"/>
        <line id="Line_129" data-name="Line 129" x2="29.616" transform="translate(42.554 45.596)" fill="none" stroke="#fff" stroke-miterlimit="10" stroke-width="2"/>
      </g>
    </g>
    <g id="Group_603" data-name="Group 603" transform="translate(273.407 299.19)">
      <path id="Path_454" data-name="Path 454" d="M312.656,434.257H293.949l-9.353-49.1V298.634H303.3v86.518Z" transform="translate(-263.551 -289.28)" fill="#fff" stroke="#44566b" stroke-miterlimit="10" stroke-width="2"/>
      <line id="Line_130" data-name="Line 130" x1="7.953" y1="41.75" transform="translate(27.667 97.2)" fill="none" stroke="#43566b" stroke-linejoin="round" stroke-width="2"/>
      <path id="Rectangle_164" data-name="Rectangle 164" d="M15.227,0H55.521a0,0,0,0,1,0,0V67.635a0,0,0,0,1,0,0H15.227A15.227,15.227,0,0,1,0,52.407V15.227A15.227,15.227,0,0,1,15.227,0Z" transform="translate(0 18.707)" fill="#4282c3" stroke="#45566b" stroke-miterlimit="10" stroke-width="2"/>
      <path id="Path_455" data-name="Path 455" d="M373.3,399.429,309.48,378.208V310.573L373.3,291.866Z" transform="translate(-254.044 -291.866)" fill="#fff" stroke="#44566b" stroke-miterlimit="10" stroke-width="2"/>
      <path id="Path_456" data-name="Path 456" d="M355.657,306.947v65.878c12.737-4.87,18.707-17.741,18.707-32.938S368.394,311.817,355.657,306.947Z" transform="translate(-236.402 -286.104)" fill="#f5dc26" stroke="#44566b" stroke-miterlimit="10" stroke-width="2"/>
      <g id="Group_600" data-name="Group 600" transform="translate(63.135 79.503)">
        <g id="Group_599" data-name="Group 599">
          <line id="Line_131" data-name="Line 131" x2="1.323" y2="0.397" fill="none" stroke="#43566b" stroke-linejoin="round" stroke-width="2"/>
          <line id="Line_132" data-name="Line 132" x2="42.173" y2="12.652" transform="translate(2.621 0.786)" fill="none" stroke="#43566b" stroke-linejoin="round" stroke-width="2" stroke-dasharray="1.961 0.98"/>
          <line id="Line_133" data-name="Line 133" x2="1.323" y2="0.397" transform="translate(45.443 13.633)" fill="none" stroke="#43566b" stroke-linejoin="round" stroke-width="2"/>
        </g>
      </g>
      <g id="Group_602" data-name="Group 602" transform="translate(63.135 14.03)">
        <g id="Group_601" data-name="Group 601">
          <line id="Line_134" data-name="Line 134" y1="0.397" x2="1.323" transform="translate(0 13.633)" fill="none" stroke="#43566b" stroke-linejoin="round" stroke-width="2"/>
          <line id="Line_135" data-name="Line 135" y1="12.652" x2="42.173" transform="translate(2.621 0.592)" fill="none" stroke="#43566b" stroke-linejoin="round" stroke-width="2" stroke-dasharray="1.961 0.98"/>
          <line id="Line_136" data-name="Line 136" y1="0.397" x2="1.323" transform="translate(45.443)" fill="none" stroke="#43566b" stroke-linejoin="round" stroke-width="2"/>
        </g>
      </g>
    </g>
    <g id="Group_605" data-name="Group 605" transform="translate(427.555 288.351)">
      <path id="Path_457" data-name="Path 457" d="M429.642,308.391a24.368,24.368,0,1,1-24.365-24.368A24.367,24.367,0,0,1,429.642,308.391Z" transform="translate(-380.905 -284.023)" fill="#77c04b" stroke="#44566b" stroke-miterlimit="10" stroke-width="2"/>
      <g id="Group_604" data-name="Group 604" transform="translate(12.134 14.212)">
        <path id="Path_458" data-name="Path 458" d="M394.495,302.663h-4.81v-1.638h4.81v-5.152h1.716v5.152h4.808v1.638h-4.808v5.154h-1.716Z" transform="translate(-389.685 -293.707)" fill="#fff"/>
        <path id="Path_459" data-name="Path 459" d="M400.074,307.755a5.734,5.734,0,0,0,4.253,1.928,3.637,3.637,0,0,0,3.7-3.859,3.386,3.386,0,0,0-3.592-3.7,4.755,4.755,0,0,0-2.88,1.031l-1.162-.741.554-8.11h8.429v1.875h-6.526l-.449,4.993a5.178,5.178,0,0,1,2.59-.687c2.879,0,5.231,1.638,5.231,5.284a5.512,5.512,0,0,1-5.682,5.708,7.383,7.383,0,0,1-5.521-2.3Z" transform="translate(-386.12 -294.306)" fill="#fff"/>
      </g>
    </g>
    <g id="Group_608" data-name="Group 608" transform="translate(329.561 284.933)">
      <g id="Group_607" data-name="Group 607">
        <rect id="Rectangle_165" data-name="Rectangle 165" width="10.18" height="10.18" transform="translate(0)" fill="#fff"/>
        <g id="Group_606" data-name="Group 606">
          <path id="Path_460" data-name="Path 460" d="M317.748,287.917V289.3h-1.382" transform="translate(-307.568 -279.118)" fill="none" stroke="#42566b" stroke-miterlimit="10" stroke-width="2"/>
          <line id="Line_137" data-name="Line 137" x1="3.708" transform="translate(2.618 10.18)" fill="none" stroke="#42566b" stroke-miterlimit="10" stroke-width="2" stroke-dasharray="1.789 1.789"/>
          <path id="Path_461" data-name="Path 461" d="M311.382,289.3H310v-1.382" transform="translate(-310 -279.118)" fill="none" stroke="#42566b" stroke-miterlimit="10" stroke-width="2"/>
          <line id="Line_138" data-name="Line 138" y1="3.708" transform="translate(0 2.618)" fill="none" stroke="#42566b" stroke-miterlimit="10" stroke-width="2" stroke-dasharray="1.789 1.789"/>
          <path id="Path_462" data-name="Path 462" d="M310,282.932V281.55h1.382" transform="translate(-310 -281.55)" fill="none" stroke="#42566b" stroke-miterlimit="10" stroke-width="2"/>
          <line id="Line_139" data-name="Line 139" x2="3.707" transform="translate(3.855)" fill="none" stroke="#42566b" stroke-miterlimit="10" stroke-width="2" stroke-dasharray="1.789 1.789"/>
          <path id="Path_463" data-name="Path 463" d="M316.366,281.55h1.382v1.382" transform="translate(-307.568 -281.55)" fill="none" stroke="#42566b" stroke-miterlimit="10" stroke-width="2"/>
          <line id="Line_140" data-name="Line 140" y2="3.708" transform="translate(10.18 3.854)" fill="none" stroke="#42566b" stroke-miterlimit="10" stroke-width="2" stroke-dasharray="1.789 1.789"/>
        </g>
      </g>
    </g>
    <rect id="Rectangle_166" data-name="Rectangle 166" width="22.64" height="12.201" transform="translate(293.64 295.336) rotate(-90)" fill="#fff" stroke="#42566b" stroke-miterlimit="10" stroke-width="2"/>
    <rect id="Rectangle_167" data-name="Rectangle 167" width="22.64" height="12.201" transform="translate(293.64 284.016)" fill="#fff" stroke="#42566b" stroke-miterlimit="10" stroke-width="2"/>
  </g>
</svg>
