<svg xmlns="http://www.w3.org/2000/svg" width="260.348" height="229.704" viewBox="0 0 260.348 229.704">
  <g id="Experience" transform="translate(-28.846 -30.715)">
    <g id="Group_2445" data-name="Group 2445" transform="translate(272.724 47.416)">
      <line id="Line_146" data-name="Line 146" y2="16.47" transform="translate(8.235)" fill="#f5dc26" stroke="#44566b" stroke-miterlimit="10" stroke-width="2"/>
      <line id="Line_147" data-name="Line 147" x1="16.47" transform="translate(0 8.235)" fill="#f5dc26" stroke="#44566b" stroke-miterlimit="10" stroke-width="2"/>
      <rect id="Rectangle_453" data-name="Rectangle 453" width="6.786" height="6.786" transform="translate(11.628 11.628) rotate(180)" fill="#fff"/>
    </g>
    <rect id="Rectangle_454" data-name="Rectangle 454" width="12.72" height="12.72" transform="translate(91.858 175.846)" fill="#f5dc26"/>
    <rect id="Rectangle_455" data-name="Rectangle 455" width="12.72" height="12.72" transform="translate(39.138 98.304)" fill="#f5dc26"/>
    <g id="Group_2450" data-name="Group 2450" transform="translate(42.781 129.895)">
      <line id="Line_152" data-name="Line 152" y2="18.578" transform="translate(9.289)" fill="#f5dc26" stroke="#44566b" stroke-miterlimit="10" stroke-width="2"/>
      <line id="Line_153" data-name="Line 153" x2="18.578" transform="translate(0 9.289)" fill="#f5dc26" stroke="#44566b" stroke-miterlimit="10" stroke-width="2"/>
      <rect id="Rectangle_458" data-name="Rectangle 458" width="7.654" height="7.654" transform="translate(5.462 5.462)" fill="#fff"/>
    </g>
    <g id="Group_2454" data-name="Group 2454" transform="translate(70.483 195.036)">
      <rect id="Rectangle_459" data-name="Rectangle 459" width="15.482" height="15.482" transform="translate(9.359 11.484)" fill="#f5dc26"/>
      <g id="Group_2453" data-name="Group 2453" transform="translate(0)">
        <g id="Group_2452" data-name="Group 2452">
          <rect id="Rectangle_460" data-name="Rectangle 460" width="17.1" height="17.1" fill="#fff"/>
          <g id="Group_2451" data-name="Group 2451">
            <path id="Path_936" data-name="Path 936" d="M76.783,176.472v1.238H75.544" transform="translate(-59.683 -160.61)" fill="none" stroke="#42566b" stroke-miterlimit="10" stroke-width="2"/>
            <line id="Line_154" data-name="Line 154" x1="10.236" transform="translate(2.701 17.1)" fill="none" stroke="#42566b" stroke-miterlimit="10" stroke-width="2" stroke-dasharray="2.361 2.361"/>
            <path id="Path_937" data-name="Path 937" d="M63.976,177.71H62.737v-1.238" transform="translate(-62.737 -160.61)" fill="none" stroke="#42566b" stroke-miterlimit="10" stroke-width="2"/>
            <line id="Line_155" data-name="Line 155" y1="10.236" transform="translate(0 2.701)" fill="none" stroke="#42566b" stroke-miterlimit="10" stroke-width="2" stroke-dasharray="2.361 2.361"/>
            <path id="Path_938" data-name="Path 938" d="M62.737,164.9v-1.238h1.239" transform="translate(-62.737 -163.665)" fill="none" stroke="#42566b" stroke-miterlimit="10" stroke-width="2"/>
            <line id="Line_156" data-name="Line 156" x2="10.236" transform="translate(4.163)" fill="none" stroke="#42566b" stroke-miterlimit="10" stroke-width="2" stroke-dasharray="2.361 2.361"/>
            <path id="Path_939" data-name="Path 939" d="M75.544,163.665h1.239V164.9" transform="translate(-59.683 -163.665)" fill="none" stroke="#42566b" stroke-miterlimit="10" stroke-width="2"/>
            <line id="Line_157" data-name="Line 157" y2="10.236" transform="translate(17.1 4.163)" fill="none" stroke="#42566b" stroke-miterlimit="10" stroke-width="2" stroke-dasharray="2.361 2.361"/>
          </g>
        </g>
      </g>
    </g>
    <rect id="Rectangle_461" data-name="Rectangle 461" width="16.653" height="16.653" transform="translate(31.449 159.914)" fill="#f5dc26"/>
    <rect id="Rectangle_462" data-name="Rectangle 462" width="9.197" height="9.197" transform="translate(261.528 77.678)" fill="#77c04b"/>
    <path id="Path_940" data-name="Path 940" d="M70.458,213.578h81.054v4.9l18.315-8.835-18.315-8.316v4.905H70.458" transform="translate(9.587 40.353)" fill="none" stroke="#43566b" stroke-miterlimit="10" stroke-width="2"/>
    <g id="Group_2455" data-name="Group 2455" transform="translate(50.346 231.087)">
      <rect id="Rectangle_463" data-name="Rectangle 463" width="3.449" height="3.449" fill="#43566b"/>
      <rect id="Rectangle_464" data-name="Rectangle 464" width="3.449" height="3.449" transform="translate(6.353)" fill="#43566b"/>
      <rect id="Rectangle_465" data-name="Rectangle 465" width="3.449" height="3.449" transform="translate(12.705)" fill="#43566b"/>
    </g>
    <line id="Line_158" data-name="Line 158" x2="105.6" transform="translate(48.322 50.809)" fill="none" stroke="#43566b" stroke-miterlimit="10" stroke-width="2" stroke-dasharray="2 2"/>
    <g id="Group_2458" data-name="Group 2458" transform="translate(30.26 174.569)">
      <g id="Group_2457" data-name="Group 2457">
        <rect id="Rectangle_466" data-name="Rectangle 466" width="13.458" height="13.458" transform="matrix(0.707, -0.707, 0.707, 0.707, 0, 9.516)" fill="#fff"/>
        <g id="Group_2456" data-name="Group 2456" transform="translate(0 0)">
          <path id="Path_941" data-name="Path 941" d="M44.92,154.115l.876.876-.876.876" transform="translate(-26.763 -145.475)" fill="none" stroke="#42566b" stroke-miterlimit="10" stroke-width="2"/>
          <line id="Line_159" data-name="Line 159" x1="5.435" y2="5.435" transform="translate(11.168 11.945)" fill="none" stroke="#42566b" stroke-miterlimit="10" stroke-width="2" stroke-dasharray="1.773 1.773"/>
          <path id="Path_942" data-name="Path 942" d="M38.988,161.8l-.876.876-.876-.876" transform="translate(-28.596 -143.642)" fill="none" stroke="#42566b" stroke-miterlimit="10" stroke-width="2"/>
          <line id="Line_160" data-name="Line 160" x1="5.435" y1="5.435" transform="translate(1.652 11.168)" fill="none" stroke="#42566b" stroke-miterlimit="10" stroke-width="2" stroke-dasharray="1.773 1.773"/>
          <path id="Path_943" data-name="Path 943" d="M31.136,155.867l-.876-.876.876-.876" transform="translate(-30.26 -145.475)" fill="none" stroke="#42566b" stroke-miterlimit="10" stroke-width="2"/>
          <line id="Line_161" data-name="Line 161" y1="5.435" x2="5.435" transform="translate(2.429 1.652)" fill="none" stroke="#42566b" stroke-miterlimit="10" stroke-width="2" stroke-dasharray="1.773 1.773"/>
          <path id="Path_944" data-name="Path 944" d="M37.236,148.015l.876-.876.876.876" transform="translate(-28.596 -147.139)" fill="none" stroke="#42566b" stroke-miterlimit="10" stroke-width="2"/>
          <line id="Line_162" data-name="Line 162" x2="5.435" y2="5.435" transform="translate(11.945 2.429)" fill="none" stroke="#42566b" stroke-miterlimit="10" stroke-width="2" stroke-dasharray="1.773 1.773"/>
        </g>
      </g>
    </g>
    <g id="Group_2461" data-name="Group 2461" transform="translate(166.588 42.907)">
      <g id="Group_2460" data-name="Group 2460">
        <rect id="Rectangle_467" data-name="Rectangle 467" width="9.754" height="9.754" transform="translate(0 6.897) rotate(-45)" fill="#fff"/>
        <g id="Group_2459" data-name="Group 2459" transform="translate(0 0)">
          <path id="Path_945" data-name="Path 945" d="M150.766,45.694l.876.876-.876.876" transform="translate(-137.847 -39.672)" fill="none" stroke="#42566b" stroke-miterlimit="10" stroke-width="2"/>
          <line id="Line_163" data-name="Line 163" x1="2.573" y2="2.573" transform="translate(8.631 9.489)" fill="none" stroke="#42566b" stroke-miterlimit="10" stroke-width="2" stroke-dasharray="1.959 1.959"/>
          <path id="Path_946" data-name="Path 946" d="M146.949,51.263l-.876.876-.876-.876" transform="translate(-139.176 -38.344)" fill="none" stroke="#42566b" stroke-miterlimit="10" stroke-width="2"/>
          <line id="Line_164" data-name="Line 164" x1="2.573" y1="2.573" transform="translate(1.733 8.631)" fill="none" stroke="#42566b" stroke-miterlimit="10" stroke-width="2" stroke-dasharray="1.959 1.959"/>
          <path id="Path_947" data-name="Path 947" d="M141.211,47.445l-.876-.876.876-.876" transform="translate(-140.335 -39.672)" fill="none" stroke="#42566b" stroke-miterlimit="10" stroke-width="2"/>
          <line id="Line_165" data-name="Line 165" y1="2.573" x2="2.573" transform="translate(2.591 1.733)" fill="none" stroke="#42566b" stroke-miterlimit="10" stroke-width="2" stroke-dasharray="1.959 1.959"/>
          <path id="Path_948" data-name="Path 948" d="M145.2,41.707l.876-.876.876.876" transform="translate(-139.176 -40.832)" fill="none" stroke="#42566b" stroke-miterlimit="10" stroke-width="2"/>
          <line id="Line_166" data-name="Line 166" x2="2.573" y2="2.573" transform="translate(9.489 2.591)" fill="none" stroke="#42566b" stroke-miterlimit="10" stroke-width="2" stroke-dasharray="1.959 1.959"/>
        </g>
      </g>
    </g>
    <g id="Group_2462" data-name="Group 2462" transform="translate(47.101 60.453)">
      <rect id="Rectangle_468" data-name="Rectangle 468" width="105.015" height="44.211" fill="#f16526" stroke="#44566b" stroke-miterlimit="10" stroke-width="2"/>
      <line id="Line_167" data-name="Line 167" x2="24.481" transform="translate(11.322 13.261)" fill="none" stroke="#fff" stroke-miterlimit="10" stroke-width="2"/>
      <line id="Line_168" data-name="Line 168" x2="24.481" transform="translate(41.311 13.261)" fill="none" stroke="#fff" stroke-miterlimit="10" stroke-width="2"/>
      <line id="Line_169" data-name="Line 169" x2="42.229" transform="translate(11.322 23.36)" fill="none" stroke="#fff" stroke-miterlimit="10" stroke-width="2"/>
      <line id="Line_170" data-name="Line 170" x2="24.481" transform="translate(59.06 23.36)" fill="none" stroke="#fff" stroke-miterlimit="10" stroke-width="2"/>
      <line id="Line_171" data-name="Line 171" x2="21.115" transform="translate(11.322 33.166)" fill="none" stroke="#fff" stroke-miterlimit="10" stroke-width="2"/>
      <line id="Line_172" data-name="Line 172" x2="44.075" transform="translate(39.466 33.166)" fill="none" stroke="#fff" stroke-miterlimit="10" stroke-width="2"/>
    </g>
    <g id="Group_2468" data-name="Group 2468" transform="translate(79.795 71.089)">
      <path id="Path_949" data-name="Path 949" d="M151.487,184.739s-26.9-8.417-31.018-33.177l-3.429-11.579-6.253-18.253S109.96,89.2,117.243,80.6A133.235,133.235,0,0,1,128.8,68.214s19.639-4.727,29.764-4.558S182.215,72,182.215,72s12.238,15.956,13.872,21.68l-.409,18.812s4.405,6.458,3.429,8.749-1.245,7.388-6.018,8.521-7.623,6.791-7.623,6.791-.721,21-8.136,31.186S155.34,186.258,151.487,184.739Z" transform="translate(-60.596 -63.571)" fill="#c0d3d6"/>
      <path id="Path_950" data-name="Path 950" d="M131.054,152.112s-9.245-7.9-13.994-23.924c-.114.057-1.749-19.3,5.067-19.026,0,0,.883-18.116,1.8-19.417a15.729,15.729,0,0,1,3.424-2.9s16.311,3.827,23.262-1.243c-.137.11,10.225,4.078,14.313,4.139s9.269-2.491,9.269-2.491,8.449-3.719,2.451,23l6.472,15.694.913,1.949,7.611-3.372s-1.417,16.019-7.253,19c-.109-.56-.489-14.368-.489-14.368h-2.143s-9.746,23.476-12.472,23.685-6.6-6.365-6.6-6.365l-26.38.12Z" transform="translate(-59.153 -58.335)" fill="#fcc9a0"/>
      <path id="Path_951" data-name="Path 951" d="M148.04,194.858,122.2,151.622l-.284-6.574s14.478,20.009,26.909,20.278,25.844-17,25.844-17v5.234l-25.441,40.6Z" transform="translate(-57.935 -44.158)" fill="#fcc9a0"/>
      <path id="Path_952" data-name="Path 952" d="M70.458,204.615s5.1-19.949,6.581-20.575,6.858-6.527,11.326-8.075,45.469-16.155,45.825-17.848a67.007,67.007,0,0,0,.284-7.76l25.839,43.236,26.63-41.3s-.872,5.81.967,6.811,8.115,4.347,14.791,7.377,38.131,9.238,44.9,19.833,6.217,18.3,6.217,18.3Z" transform="translate(-70.208 -42.892)" fill="#009fd9" stroke="#44566b" stroke-miterlimit="10" stroke-width="2"/>
      <path id="Path_953" data-name="Path 953" d="M107.093,166.227l-2.94,15.914s20.932-7.819,22.87-7.5,18.305,17.3,25.253,27.21c-.141.372,16.723-16.414,16.723-16.414s8.809-4.249,18.055-.82,10.608,7.791,10.608,7.791l-3-25.931L179.874,159.1l-.967-6.811-26.63,41.3-25.839-43.236-.157,5.794Z" transform="translate(-62.171 -42.892)" fill="#fff" stroke="#44566b" stroke-linecap="round" stroke-miterlimit="10" stroke-width="2"/>
      <path id="Path_954" data-name="Path 954" d="M139.474,116.486c0,2.127-3.516,3.851-7.853,3.851s-7.853-1.724-7.853-3.851,3.516-3.85,7.853-3.85S139.474,114.359,139.474,116.486Z" transform="translate(-57.493 -51.888)" fill="#fff"/>
      <path id="Path_955" data-name="Path 955" d="M165.878,116.486c0,2.127-3.516,3.851-7.853,3.851s-7.853-1.724-7.853-3.851,3.516-3.85,7.853-3.85S165.878,114.359,165.878,116.486Z" transform="translate(-51.196 -51.888)" fill="#fff"/>
      <path id="Path_956" data-name="Path 956" d="M131.56,72.872s11.04,6.643,8.859,3.917-4.528-4.561-1.583-3.917,7.3,4.574,7.3,4.574l-1.956-4.574a49.6,49.6,0,0,1,7.964,6.371c2.725,3-3.815-4.591,0-3.25s4.637,7.611,6.271,7.066.691.619.754-2.961,2.166-.243,3.3,2.995-.5-5.685,2.224-2.995,4.632,3.234,5.994,2.416,6.268-4.907,4.632-.272-2.944,8.085-2.944,8.085-6.5,2.883-10.443,2.44S138.24,88.04,131.56,72.872Z" transform="translate(-55.635 -61.403)" fill="#707994" opacity="0.15"/>
      <path id="Path_957" data-name="Path 957" d="M181.678,85.943s-7.976,2.161-6.34,3.722-3.681,5.036-1.432,5.444,7.412-.422,3.6,2.959-5.344,3.176-4.168,4.812,7.925-1.84,5.063,1.635-8.475,3.476-7.816,6.339,7,3.686,3.522,5.217-9.445-4.41-7.79-1.1,6,12.656,5.973,13.874,2.571-2.731,5.113-3.348,7.826-3.8,8.5-9.429-2.8-3.376-4.028-7.466S184.951,99.064,181.678,85.943Z" transform="translate(-47.412 -58.255)" fill="#707994" opacity="0.15"/>
      <path id="Path_958" data-name="Path 958" d="M133.885,141.63s-2.177.032-1.293-2.217,25.908-2.045,26.38-1.023,2.694,2.995,0,3.24S133.885,141.63,133.885,141.63Z" transform="translate(-55.439 -45.921)" fill="#707994" opacity="0.15"/>
      <path id="Path_959" data-name="Path 959" d="M124.044,117.123s-2.214-5.331-1.122-6.428,9.543-2.253,10.77-2.217,9.99,2.883,10.652,4.322-.053,19.7-.053,19.7l-3.323-14.675s-1.739-4.96-9.075-3.851S124.044,117.123,124.044,117.123Z" transform="translate(-57.767 -52.88)" fill="#be9778" opacity="0.7"/>
      <path id="Path_960" data-name="Path 960" d="M141.755,88.533S133.722,79.479,128,82.75s-8.383,6.543-8.588,14.926-2.658,7.565-4.7,13.7,2.773,16.258,2.773,16.258-2.16-11.964,1.521-14.826,3.943-1.62,4.409-2.616C125.407,105.924,115.949,79.949,141.755,88.533Z" transform="translate(-59.775 -59.186)" fill="#707994" opacity="0.15"/>
      <path id="Path_961" data-name="Path 961" d="M122.176,151.369l-.157-5.358s13.455,18.4,26.369,18.709-6.614,19.462-6.614,19.462Z" transform="translate(-57.91 -43.928)" fill="#be9778" opacity="0.7"/>
      <path id="Path_962" data-name="Path 962" d="M143.009,129.824v6.314h2.858v-6.007Z" transform="translate(-52.904 -47.789)" fill="#2c4694" opacity="0.4"/>
      <path id="Path_963" data-name="Path 963" d="M117.089,122.815l12.625,20.72,1.292.435a24.52,24.52,0,0,0,5.251,6.381c4.247,3.284,9.165,5.043,11.392,7.938,8.366,10.874.831,18.018-18.86-.235C122.294,152.033,116.258,131.3,117.089,122.815Z" transform="translate(-59.105 -49.461)" fill="#707994" opacity="0.15"/>
      <g id="Group_2467" data-name="Group 2467" transform="translate(0)">
        <path id="Path_964" data-name="Path 964" d="M149.621,179.387s-27.23-3.974-31.592-38.519,4.748-31.267,4.748-31.267-.386-19.742,2.886-21.869,9.5,1.038,18.924,0,5.033-3.218,5.033-3.218,14.209,9.707,24.023,3.218c6.543-3.218,7.633,15.876,3.545,21.869-2.453,3.883,7.36,13.625,6.815,22.349S180.667,174.479,149.621,179.387Z" transform="translate(-59.144 -58.595)" fill="none" stroke="#44566b" stroke-miterlimit="10" stroke-width="2"/>
        <path id="Path_965" data-name="Path 965" d="M118.295,143.212s-5.906-14.721-7.269-20.991,3.271-36.8,6.269-41.712,9.543-12.269,13.9-13.358,16.9-3.817,26.171-3.545,20.175,4.634,23.719,7.362,14.177,18.81,14.722,23.172-.545,14.448,0,18.265,4.362,7.362,3,10.905a17.422,17.422,0,0,1-4.634,6.543c-1.091,1.091-6.921-1.324-9.005,10.631" transform="translate(-60.591 -63.587)" fill="none" stroke="#44566b" stroke-miterlimit="10" stroke-width="2"/>
        <path id="Path_966" data-name="Path 966" d="M171.09,136.029s5.431-6,7.611-17.176" transform="translate(-46.207 -50.405)" fill="none" stroke="#44566b" stroke-linecap="round" stroke-miterlimit="10" stroke-width="2"/>
        <path id="Path_967" data-name="Path 967" d="M116.906,119.752s9.834,22.06,12.833,24.514,4.634-6.271,7.36-6,12.508.272,12.508.272" transform="translate(-59.13 -50.191)" fill="none" stroke="#44566b" stroke-linecap="round" stroke-miterlimit="10" stroke-width="2"/>
        <path id="Path_968" data-name="Path 968" d="M176.01,119.752s-9.834,22.06-12.832,24.514-4.634-6.271-7.36-6-12.508.272-12.508.272" transform="translate(-52.832 -50.191)" fill="none" stroke="#44566b" stroke-linecap="round" stroke-miterlimit="10" stroke-width="2"/>
        <path id="Path_969" data-name="Path 969" d="M134.311,140.865s8.655,1.091,11.961,1.091,11.485-1.091,11.485-1.091" transform="translate(-54.979 -45.156)" fill="none" stroke="#44566b" stroke-linecap="round" stroke-miterlimit="10" stroke-width="2"/>
        <path id="Path_970" data-name="Path 970" d="M123.746,109.6s9.269-1.356,10.9-1.084,9.814,2.453,10.086,5.726-2.726,17.448,0,19.357a8.374,8.374,0,0,0,7.111,1.319" transform="translate(-57.498 -52.88)" fill="none" stroke="#44566b" stroke-linecap="round" stroke-miterlimit="10" stroke-width="2"/>
        <path id="Path_971" data-name="Path 971" d="M148.179,110.691l11.45-2.195a43.685,43.685,0,0,1,7.089,2.195" transform="translate(-51.671 -52.876)" fill="none" stroke="#44566b" stroke-linecap="round" stroke-miterlimit="10" stroke-width="2"/>
        <g id="Group_2464" data-name="Group 2464" transform="translate(66.273 61.452)">
          <path id="Path_972" data-name="Path 972" d="M133.753,117.035a3.025,3.025,0,0,0-2.027-3.625,2.752,2.752,0,0,0-3.335,2.2,3.024,3.024,0,0,0,2.027,3.625A2.752,2.752,0,0,0,133.753,117.035Z" transform="translate(-122.683 -113.176)" fill="#43566b"/>
          <g id="Group_2463" data-name="Group 2463">
            <path id="Path_973" data-name="Path 973" d="M139.47,117.409c-.135,1.892-3.759,3.109-8.094,2.719s-7.741-2.24-7.606-4.132,3.759-3.109,8.094-2.719S139.6,115.517,139.47,117.409Z" transform="translate(-123.767 -113.204)" fill="none" stroke="#44566b" stroke-miterlimit="10" stroke-width="2"/>
          </g>
        </g>
        <g id="Group_2466" data-name="Group 2466" transform="translate(98.975 61.099)">
          <path id="Path_974" data-name="Path 974" d="M153.93,116.751a3.025,3.025,0,0,1,2.026-3.626,2.751,2.751,0,0,1,3.335,2.2,3.024,3.024,0,0,1-2.026,3.625A2.751,2.751,0,0,1,153.93,116.751Z" transform="translate(-149.293 -112.892)" fill="#43566b"/>
          <g id="Group_2465" data-name="Group 2465">
            <path id="Path_975" data-name="Path 975" d="M150.175,117.125c.134,1.891,3.758,3.109,8.094,2.719s7.739-2.24,7.606-4.133-3.759-3.109-8.094-2.717S150.04,115.232,150.175,117.125Z" transform="translate(-150.171 -112.92)" fill="none" stroke="#44566b" stroke-miterlimit="10" stroke-width="2"/>
          </g>
        </g>
        <path id="Path_976" data-name="Path 976" d="M146.112,87.3s-13.325-6.679-14.552-14.45" transform="translate(-55.635 -61.378)" fill="none" stroke="#44566b" stroke-linecap="round" stroke-miterlimit="10" stroke-width="2"/>
        <path id="Path_977" data-name="Path 977" d="M133.965,143.588a41.18,41.18,0,0,1,0,13.813c-1.31,7.351-53.55,17.114-57.9,30.226s-5.8,19.109-5.8,19.109H254s-1.513-5.688-6.051-18.125-58.994-21.7-60.36-28.669a35.6,35.6,0,0,1,0-13.1" transform="translate(-70.256 -44.506)" fill="none" stroke="#44566b" stroke-linecap="round" stroke-miterlimit="10" stroke-width="2"/>
        <path id="Path_978" data-name="Path 978" d="M106.831,163.171l-3.358,15.73a.55.55,0,0,0,.762.623c4.5-2.057,22.895-10.209,25.978-7.391,3.517,3.215,22.771,26.661,22.771,26.661s15.108-17.63,18.919-17.811,19.078-2.259,24.531,6.685-2.775-24.107-2.775-24.107" transform="translate(-62.337 -39.836)" fill="none" stroke="#44566b" stroke-linecap="round" stroke-miterlimit="10" stroke-width="2"/>
        <path id="Path_979" data-name="Path 979" d="M122.146,150.337l26.212,43.884,26.258-42.529" transform="translate(-57.88 -42.896)" fill="none" stroke="#44566b" stroke-linecap="round" stroke-miterlimit="10" stroke-width="2"/>
      </g>
    </g>
    <path id="Path_980" data-name="Path 980" d="M197.661,85.606V98.951l-8.6,4.967,8.6,4.967v37.8h35.045V85.606Z" transform="translate(37.874 12.754)" fill="#f5dc26" stroke="#44566b" stroke-miterlimit="10" stroke-width="2"/>
    <line id="Line_173" data-name="Line 173" x2="21.177" transform="translate(242.919 107.492)" fill="#fff" stroke="#44566b" stroke-linecap="round" stroke-miterlimit="10" stroke-width="2"/>
    <line id="Line_174" data-name="Line 174" x2="21.177" transform="translate(242.919 113.306)" fill="#fff" stroke="#44566b" stroke-linecap="round" stroke-miterlimit="10" stroke-width="2"/>
    <line id="Line_175" data-name="Line 175" x2="21.177" transform="translate(242.919 119.12)" fill="#fff" stroke="#44566b" stroke-linecap="round" stroke-miterlimit="10" stroke-width="2"/>
    <line id="Line_176" data-name="Line 176" x2="21.177" transform="translate(242.919 124.935)" fill="#fff" stroke="#44566b" stroke-linecap="round" stroke-miterlimit="10" stroke-width="2"/>
    <line id="Line_177" data-name="Line 177" x2="21.177" transform="translate(242.919 130.749)" fill="#fff" stroke="#44566b" stroke-linecap="round" stroke-miterlimit="10" stroke-width="2"/>
    <line id="Line_178" data-name="Line 178" x2="21.177" transform="translate(242.919 136.563)" fill="#fff" stroke="#44566b" stroke-linecap="round" stroke-miterlimit="10" stroke-width="2"/>
    <line id="Line_179" data-name="Line 179" x2="21.177" transform="translate(242.919 142.377)" fill="#fff" stroke="#44566b" stroke-linecap="round" stroke-miterlimit="10" stroke-width="2"/>
    <line id="Line_180" data-name="Line 180" x2="21.177" transform="translate(242.919 148.191)" fill="#fff" stroke="#44566b" stroke-linecap="round" stroke-miterlimit="10" stroke-width="2"/>
    <path id="Path_981" data-name="Path 981" d="M103.677,101.129v13.344l8.6,4.967-8.6,4.967v37.8H68.632V101.129Z" transform="translate(9.152 16.457)" fill="#77c04b" stroke="#44566b" stroke-miterlimit="10" stroke-width="2"/>
    <line id="Line_181" data-name="Line 181" x1="21.177" transform="translate(84.268 126.717)" fill="#fff" stroke="#44566b" stroke-linecap="round" stroke-miterlimit="10" stroke-width="2"/>
    <line id="Line_182" data-name="Line 182" x1="21.177" transform="translate(84.268 132.531)" fill="#fff" stroke="#44566b" stroke-linecap="round" stroke-miterlimit="10" stroke-width="2"/>
    <line id="Line_183" data-name="Line 183" x1="21.177" transform="translate(84.268 138.346)" fill="#fff" stroke="#44566b" stroke-linecap="round" stroke-miterlimit="10" stroke-width="2"/>
    <line id="Line_184" data-name="Line 184" x1="21.177" transform="translate(84.268 144.16)" fill="#fff" stroke="#44566b" stroke-linecap="round" stroke-miterlimit="10" stroke-width="2"/>
    <line id="Line_185" data-name="Line 185" x1="21.177" transform="translate(84.268 149.974)" fill="#fff" stroke="#44566b" stroke-linecap="round" stroke-miterlimit="10" stroke-width="2"/>
    <line id="Line_186" data-name="Line 186" x1="21.177" transform="translate(84.268 155.788)" fill="#fff" stroke="#44566b" stroke-linecap="round" stroke-miterlimit="10" stroke-width="2"/>
    <line id="Line_187" data-name="Line 187" x1="21.177" transform="translate(84.268 161.602)" fill="#fff" stroke="#44566b" stroke-linecap="round" stroke-miterlimit="10" stroke-width="2"/>
    <line id="Line_188" data-name="Line 188" x1="21.177" transform="translate(84.268 167.416)" fill="#fff" stroke="#44566b" stroke-linecap="round" stroke-miterlimit="10" stroke-width="2"/>
    <path id="Path_982" data-name="Path 982" d="M115.137,116.534l-2.437.337c-1.821.25-2.758,4.964-2.044,10.142s2.87,9.274,4.69,9.023l2.437-.337a3.278,3.278,0,0,0,2.8-3.691l-1.751-12.674A3.276,3.276,0,0,0,115.137,116.534Z" transform="translate(19.117 20.123)" fill="#43566b"/>
    <path id="Path_983" data-name="Path 983" d="M188.569,128.271c.181-1.528.28-2.4.28-2.4l.046-.266a.807.807,0,0,0-.64-.936c.012-.073.016-.159.03-.232.446-4.4-.333-8.108-1.946-8.39l-2.413-.421a3.278,3.278,0,0,0-3.79,2.668l-2.2,12.6a3.275,3.275,0,0,0,2.663,3.787l2.413.421c1.643.287,3.645-2.949,4.7-7.353l.019-.109c.031,0,.076-.009.119-.006-.03.172-.046.324-.069.524-.068.754-.287,1.643-.468,2.679s-.549,2.161-.874,3.412a32.308,32.308,0,0,1-1.522,3.873c-.155.332-.311.674-.478,1.014-.185.322-.37.654-.57.995s-.386.677-.583,1.013c-.228.324-.458.654-.686.985a24.863,24.863,0,0,1-3.208,3.76q-.921.853-1.931,1.662c-.7.5-1.361,1.039-2.1,1.466a29.352,29.352,0,0,1-4.55,2.359,36.592,36.592,0,0,1-4.717,1.539,41.02,41.02,0,0,1-4.571.886c-1.473.209-2.871.3-4.16.378a51.881,51.881,0,0,1-6.253-.1l-.042-.007c.05-.281.089-.633.166-1.258l-10.208-4.16c-3.408-.557-4.892,5.546-1.583,6.365l10.867,1.065c.246-.551.4-.894.514-1.164.073.007.137.014.212.015a49.817,49.817,0,0,0,6.361.1c1.321-.081,2.742-.176,4.239-.4a39.9,39.9,0,0,0,4.659-.9,35.262,35.262,0,0,0,4.834-1.59,31.064,31.064,0,0,0,4.678-2.42c.765-.452,1.453-1.012,2.164-1.526.686-.551,1.354-1.12,1.983-1.718a24.985,24.985,0,0,0,3.314-3.881c.243-.343.462-.68.7-1.013.211-.349.4-.7.612-1.051.188-.342.388-.687.576-1.024s.326-.7.493-1.045a32.574,32.574,0,0,0,1.562-3.973c.329-1.277.725-2.43.877-3.491C188.287,129.948,188.511,129.032,188.569,128.271Z" transform="translate(25.599 19.902)" fill="#43566b"/>
    <g id="Group_2503" data-name="Group 2503" transform="translate(204.104 32.13)">
      <g id="Group_2502" data-name="Group 2502">
        <g id="Group_2498" data-name="Group 2498">
          <circle id="Ellipse_107" data-name="Ellipse 107" cx="18.846" cy="18.846" r="18.846" transform="translate(0 26.652) rotate(-45)" fill="#fff" stroke="#43566b" stroke-miterlimit="10" stroke-width="2"/>
        </g>
        <g id="Group_2501" data-name="Group 2501" transform="translate(5.503 5.503)">
          <g id="Group_2500" data-name="Group 2500">
            <g id="Group_2499" data-name="Group 2499">
              <circle id="Ellipse_108" data-name="Ellipse 108" cx="14.955" cy="14.955" r="14.955" transform="translate(0 21.149) rotate(-45)" fill="none" stroke="#43566b" stroke-linecap="round" stroke-miterlimit="10" stroke-width="2" stroke-dasharray="0 5.056"/>
            </g>
          </g>
        </g>
      </g>
      <path id="Path_986" data-name="Path 986" d="M192.145,51.122v7.16l8.968,4.617" transform="translate(-165.494 -27.6)" fill="none" stroke="#24abc2" stroke-linecap="round" stroke-linejoin="round" stroke-width="2"/>
    </g>
    <line id="Line_189" data-name="Line 189" y2="40.699" transform="translate(280.959 107.492)" fill="none" stroke="#42566b" stroke-miterlimit="10" stroke-width="2" stroke-dasharray="2 2"/>
    <g id="Group_2504" data-name="Group 2504" transform="translate(222.981 144.892)">
      <path id="Path_431" data-name="Path 431" d="M140.262,401.211h-25.37a1.854,1.854,0,0,1-1.849-1.848h0a1.854,1.854,0,0,1,1.849-1.849h25.37a1.854,1.854,0,0,1,1.849,1.849h0A1.854,1.854,0,0,1,140.262,401.211Z" transform="translate(-101.834 -332.965)" fill="#3d4b61"/>
      <path id="Path_432" data-name="Path 432" d="M140.262,404.543h-25.37a1.854,1.854,0,0,1-1.849-1.849h0a1.854,1.854,0,0,1,1.849-1.848h25.37a1.854,1.854,0,0,1,1.849,1.848h0A1.854,1.854,0,0,1,140.262,404.543Z" transform="translate(-101.834 -332.033)" fill="#3d4b61"/>
      <path id="Path_433" data-name="Path 433" d="M140.262,407.874h-25.37a1.854,1.854,0,0,1-1.849-1.848h0a1.854,1.854,0,0,1,1.849-1.849h25.37a1.854,1.854,0,0,1,1.849,1.849h0A1.854,1.854,0,0,1,140.262,407.874Z" transform="translate(-101.834 -331.101)" fill="#3d4b61"/>
      <path id="Path_434" data-name="Path 434" d="M140.262,411.205h-25.37a1.854,1.854,0,0,1-1.849-1.848h0a1.854,1.854,0,0,1,1.849-1.848h25.37a1.854,1.854,0,0,1,1.849,1.848h0A1.854,1.854,0,0,1,140.262,411.205Z" transform="translate(-101.834 -330.168)" fill="#3d4b61"/>
      <path id="Path_435" data-name="Path 435" d="M126.568,418.615c5.479,0,9.92-3.481,9.92-7.775H116.647C116.647,415.134,121.088,418.615,126.568,418.615Z" transform="translate(-100.826 -329.236)" fill="#3d4b61"/>
      <path id="Path_436" data-name="Path 436" d="M114.341,405.618v1.664a4.3,4.3,0,0,0,4.29,4.29c0,.019.005.037.005.056h22.782c0-.019.005-.037.005-.056a4.3,4.3,0,0,0,4.29-4.29v-1.664a32.821,32.821,0,0,1,5.662-18.444,25.742,25.742,0,1,0-42.7,0A32.963,32.963,0,0,1,114.341,405.618Z" transform="translate(-104.285 -347.079)" fill="#ffcc0a" stroke="#44566b" stroke-miterlimit="10" stroke-width="2"/>
      <line id="Line_96" data-name="Line 96" y1="26.473" transform="translate(25.742 38.077)" fill="#ffcc0a" stroke="#44566b" stroke-miterlimit="10" stroke-width="2"/>
      <path id="Path_437" data-name="Path 437" d="M118.316,365.516,126.1,380l7.785-14.48Z" transform="translate(-100.359 -341.919)" fill="none" stroke="#44566b" stroke-miterlimit="10" stroke-width="2"/>
    </g>
    <line id="Line_190" data-name="Line 190" y2="26.81" transform="translate(248.724 232.35)" fill="#ea6125" stroke="#43566b" stroke-miterlimit="10" stroke-width="2"/>
  </g>
</svg>
