<svg xmlns="http://www.w3.org/2000/svg" xmlns:xlink="http://www.w3.org/1999/xlink" width="634.575" height="223.127" viewBox="0 0 634.575 223.127">
  <defs>
    <clipPath id="clip-path">
      <circle id="Ellipse_100" data-name="Ellipse 100" cx="26.889" cy="26.889" r="26.889"/>
    </clipPath>
  </defs>
  <g id="Free_Access" transform="translate(-52.773 -117.475)">
    <g id="Group_1685" data-name="Group 1685" transform="translate(523.283 196.461)">
      <path id="Path_772" data-name="Path 772" d="M579.787,215.374a8.933,8.933,0,0,1,5.109,1.565,6.63,6.63,0,0,1,3.878-2.171,9.1,9.1,0,0,1-.1-1.325,9.006,9.006,0,1,1,17.756,2.123,9.21,9.21,0,0,1,11.08,8.866H570.782A9.083,9.083,0,0,1,579.787,215.374Z" transform="translate(-570.782 -204.435)" fill="#1ed9de"/>
    </g>
    <g id="Group_1686" data-name="Group 1686" transform="translate(136.829 178.221)">
      <path id="Path_773" data-name="Path 773" d="M154.32,195.292a8.941,8.941,0,0,1,5.109,1.564,6.628,6.628,0,0,1,3.878-2.171,9.008,9.008,0,1,1,17.658.8,9.207,9.207,0,0,1,11.081,8.866H145.315A9.081,9.081,0,0,1,154.32,195.292Z" transform="translate(-145.315 -184.353)" fill="#1ed9de"/>
    </g>
    <g id="Group_1687" data-name="Group 1687" transform="translate(52.773 322.721)">
      <path id="Path_774" data-name="Path 774" d="M61.547,343.441H674.774a8.8,8.8,0,0,1,8.774,8.774h0a8.8,8.8,0,0,1-8.774,8.774H61.547a8.8,8.8,0,0,1-8.774-8.774h0A8.8,8.8,0,0,1,61.547,343.441Z" transform="translate(-52.773 -343.441)" fill="#06b3b9"/>
    </g>
    <g id="Group_1693" data-name="Group 1693" transform="translate(71.175 265.885)">
      <g id="Group_1688" data-name="Group 1688">
        <path id="Path_775" data-name="Path 775" d="M73.033,305.662l27.305-24.795,27.306,24.561-.239,33.814H73.748Z" transform="translate(-73.033 -280.867)" fill="#ffd55c"/>
      </g>
      <g id="Group_1689" data-name="Group 1689" transform="translate(7.274 14.266)">
        <rect id="Rectangle_426" data-name="Rectangle 426" width="40.412" height="39.296" fill="#fff"/>
      </g>
      <g id="Group_1690" data-name="Group 1690" transform="translate(0 45.229)">
        <path id="Path_776" data-name="Path 776" d="M73.033,348.816h54.612l-19.3-18.154h-15.9Z" transform="translate(-73.033 -330.662)" fill="#ffe9a3"/>
      </g>
      <g id="Group_1691" data-name="Group 1691" transform="translate(0.038 25.819)">
        <path id="Path_777" data-name="Path 777" d="M73.075,346.845V309.292l19.4,19.41Z" transform="translate(-73.075 -309.292)" fill="#ffe082"/>
      </g>
      <g id="Group_1692" data-name="Group 1692" transform="translate(35.308 25.819)">
        <path id="Path_778" data-name="Path 778" d="M131.238,346.845V309.292L111.9,328.7Z" transform="translate(-111.905 -309.292)" fill="#ffe082"/>
      </g>
    </g>
    <g id="Group_1701" data-name="Group 1701" transform="translate(508.014 234.269)">
      <g id="Group_1696" data-name="Group 1696" transform="translate(0 0)">
        <g id="Group_1694" data-name="Group 1694">
          <rect id="Rectangle_427" data-name="Rectangle 427" width="23.868" height="99.974" fill="#ff7443"/>
        </g>
        <g id="Group_1695" data-name="Group 1695" transform="translate(5.097 77.362)">
          <circle id="Ellipse_84" data-name="Ellipse 84" cx="5.475" cy="5.475" r="5.475" transform="translate(1.362 1.362)" fill="#2a445d"/>
          <path id="Path_779" data-name="Path 779" d="M566.419,344.907a6.838,6.838,0,1,1,6.838-6.838A6.845,6.845,0,0,1,566.419,344.907Zm0-10.951a4.113,4.113,0,1,0,4.113,4.113A4.117,4.117,0,0,0,566.419,333.957Z" transform="translate(-559.582 -331.232)" fill="#fff"/>
        </g>
      </g>
      <g id="Group_1697" data-name="Group 1697" transform="translate(23.868 0)">
        <rect id="Rectangle_428" data-name="Rectangle 428" width="23.868" height="99.974" fill="#ffe082"/>
      </g>
      <g id="Group_1698" data-name="Group 1698" transform="translate(47.736 0)">
        <rect id="Rectangle_429" data-name="Rectangle 429" width="23.868" height="99.974" fill="#50667e"/>
      </g>
      <g id="Group_1699" data-name="Group 1699" transform="translate(28.965 76.454)">
        <circle id="Ellipse_85" data-name="Ellipse 85" cx="5.475" cy="5.475" r="5.475" transform="translate(1.362 1.362)" fill="#2a445d"/>
        <path id="Path_780" data-name="Path 780" d="M592.7,343.907a6.838,6.838,0,1,1,6.837-6.838A6.845,6.845,0,0,1,592.7,343.907Zm0-10.951a4.113,4.113,0,1,0,4.112,4.113A4.117,4.117,0,0,0,592.7,332.957Z" transform="translate(-585.86 -330.232)" fill="#fff"/>
      </g>
      <g id="Group_1700" data-name="Group 1700" transform="translate(52.833 76.454)">
        <circle id="Ellipse_86" data-name="Ellipse 86" cx="5.475" cy="5.475" r="5.475" transform="translate(1.362 1.362)" fill="#2a445d"/>
        <path id="Path_781" data-name="Path 781" d="M618.975,343.907a6.838,6.838,0,1,1,6.838-6.838A6.845,6.845,0,0,1,618.975,343.907Zm0-10.951a4.113,4.113,0,1,0,4.113,4.113A4.117,4.117,0,0,0,618.975,332.957Z" transform="translate(-612.138 -330.232)" fill="#fff"/>
      </g>
    </g>
    <g id="Group_1711" data-name="Group 1711" transform="translate(299.284 209.236)">
      <g id="XMLID_8_" transform="translate(5.067 4.887)">
        <g id="Group_1704" data-name="Group 1704">
          <g id="Group_1703" data-name="Group 1703">
            <g id="Group_1702" data-name="Group 1702">
              <path id="Path_782" data-name="Path 782" d="M365.647,233.6l2.034-2.488-5.252-4.294L360.4,229.3a18.511,18.511,0,0,0-7.384-2.223l-.322-3.2-6.751.678.322,3.2a18.509,18.509,0,0,0-5.468,2.626c-.437.305-.866.634-1.279.983-.016.012-.033.03-.049.042l-2.488-2.039-4.294,5.252,2.491,2.037a18.531,18.531,0,0,0-2.226,7.385l-3.2.322.679,6.745,3.2-.321a18.528,18.528,0,0,0,3.651,6.8l-2.034,2.489,5.252,4.294,2.034-2.489a18.478,18.478,0,0,0,7.385,2.226l.321,3.2,6.748-.676-.32-3.2a18.391,18.391,0,0,0,6.8-3.65l2.491,2.036,4.29-5.249-2.488-2.034a19.024,19.024,0,0,0,.9-1.869,18.508,18.508,0,0,0,1.329-5.516l3.2-.322-.681-6.749-3.2.321A18.519,18.519,0,0,0,365.647,233.6Zm-1.5,17.215a13.719,13.719,0,1,1-21.67-15.587,12.689,12.689,0,0,1,1.276-.986,13.722,13.722,0,0,1,20.394,16.572Z" transform="translate(-329.748 -223.88)" fill="#00989e"/>
            </g>
          </g>
        </g>
      </g>
      <g id="Group_1705" data-name="Group 1705" transform="translate(16.09 15.91)">
        <circle id="Ellipse_87" data-name="Ellipse 87" cx="10.689" cy="10.689" r="10.689" fill="#ffd55c"/>
      </g>
      <g id="Group_1710" data-name="Group 1710">
        <g id="Group_1709" data-name="Group 1709">
          <g id="Group_1708" data-name="Group 1708">
            <g id="Group_1707" data-name="Group 1707">
              <g id="Group_1706" data-name="Group 1706">
                <path id="Path_783" data-name="Path 783" d="M351.08,272.492h0a27.085,27.085,0,0,1-2.814-.163.909.909,0,0,1,.2-1.807,25.187,25.187,0,0,0,2.625.152.909.909,0,0,1-.005,1.818Zm4.52-.365a.908.908,0,0,1-.151-1.8,25.316,25.316,0,0,0,2.564-.573.908.908,0,1,1,.49,1.748,26.979,26.979,0,0,1-2.751.615A.844.844,0,0,1,355.6,272.127Zm-11.687-.674a.91.91,0,0,1-.253-.036,27.269,27.269,0,0,1-2.662-.926.908.908,0,0,1,.685-1.682,25.308,25.308,0,0,0,2.483.863.909.909,0,0,1-.253,1.781Zm-8.6-4.344a.9.9,0,0,1-.552-.188c-.6-.459-1.184-.949-1.741-1.457a.909.909,0,1,1,1.223-1.343c.52.473,1.066.93,1.624,1.359a.909.909,0,0,1-.554,1.63Zm-4.758-4.741a.905.905,0,0,1-.715-.348l-.073-.094c-.55-.716-1.068-1.463-1.54-2.223a.908.908,0,1,1,1.542-.959c.441.709.925,1.407,1.438,2.075l.061.079a.909.909,0,0,1-.154,1.275A.9.9,0,0,1,330.56,262.367Zm-3.607-6.279a.911.911,0,0,1-.844-.57,26.976,26.976,0,0,1-.911-2.667.908.908,0,1,1,1.747-.5,24.973,24.973,0,0,0,.85,2.486.908.908,0,0,1-.505,1.182A.9.9,0,0,1,326.953,256.088Zm-1.738-7.03a.909.909,0,0,1-.9-.815,27.2,27.2,0,0,1-.143-2.774.925.925,0,0,1,.908-.927.892.892,0,0,1,.908.889v.039a25.38,25.38,0,0,0,.133,2.588.907.907,0,0,1-.81,1C325.278,249.056,325.246,249.058,325.215,249.058Zm51.814-6.828a.908.908,0,0,1-.9-.766,25.151,25.151,0,0,0-.548-2.571.909.909,0,1,1,1.755-.472,26.961,26.961,0,0,1,.588,2.758.91.91,0,0,1-.755,1.04A.986.986,0,0,1,377.03,242.23Zm-51.552-.411a.946.946,0,0,1-.158-.014.908.908,0,0,1-.738-1.052,27.377,27.377,0,0,1,.63-2.747.908.908,0,0,1,1.747.5,25.578,25.578,0,0,0-.589,2.562A.906.906,0,0,1,325.478,241.819Zm49.432-6.513a.907.907,0,0,1-.823-.524,25.182,25.182,0,0,0-1.236-2.319.908.908,0,1,1,1.556-.938,26.6,26.6,0,0,1,1.325,2.487.908.908,0,0,1-.438,1.207A.881.881,0,0,1,374.91,235.306Zm-3.945-6.074a.9.9,0,0,1-.687-.314,25.665,25.665,0,0,0-1.821-1.9A.908.908,0,0,1,369.7,225.7a27.5,27.5,0,0,1,1.952,2.032.909.909,0,0,1-.687,1.5Zm-35.673-3.6a.908.908,0,0,1-.553-1.629l.241-.183a.908.908,0,1,1,1.09,1.453l-.226.172A.906.906,0,0,1,335.292,225.631Zm30.218-1.166a.905.905,0,0,1-.5-.148,25.364,25.364,0,0,0-2.273-1.32.908.908,0,0,1,.828-1.617,27.216,27.216,0,0,1,2.438,1.415.909.909,0,0,1-.5,1.669Zm-26.139-1.412a.908.908,0,0,1-.414-1.717,26.759,26.759,0,0,1,2.575-1.147.908.908,0,1,1,.651,1.7,25.007,25.007,0,0,0-2.4,1.069A.9.9,0,0,1,339.371,223.052Zm19.583-1.664a.914.914,0,0,1-.268-.041,25.227,25.227,0,0,0-2.55-.644.908.908,0,0,1,.352-1.782,27.582,27.582,0,0,1,2.732.69.909.909,0,0,1-.267,1.777Zm-12.736-.693a.908.908,0,0,1-.172-1.8,27.18,27.18,0,0,1,2.791-.391.908.908,0,1,1,.158,1.809,25.344,25.344,0,0,0-2.6.365A.887.887,0,0,1,346.218,220.7Z" transform="translate(-324.17 -218.499)" fill="#fff"/>
              </g>
            </g>
          </g>
        </g>
      </g>
    </g>
    <g id="Group_1721" data-name="Group 1721" transform="translate(485.176 206.765)">
      <g id="Group_1712" data-name="Group 1712" transform="translate(3.165 2.905)">
        <circle id="Ellipse_88" data-name="Ellipse 88" cx="13.16" cy="13.16" r="13.16" fill="#06b3b9"/>
      </g>
      <g id="XMLID_4_" transform="translate(6.083 5.824)">
        <g id="Group_1715" data-name="Group 1715">
          <g id="Group_1714" data-name="Group 1714">
            <g id="Group_1713" data-name="Group 1713">
              <path id="Path_784" data-name="Path 784" d="M554.531,232.023l1.477-.346-.731-3.119-1.478.347a8.741,8.741,0,0,0-2.125-2.957l.8-1.291-2.723-1.689-.8,1.291a8.761,8.761,0,0,0-2.8-.59c-.252-.012-.507-.012-.762,0l-.03,0-.345-1.48-3.119.731.347,1.48a8.829,8.829,0,0,0-.873.441,8.683,8.683,0,0,0-2.086,1.683l-1.292-.8-1.687,2.721,1.289.8a8.767,8.767,0,0,0-.588,3.6l-1.478.346.731,3.119,1.478-.347a8.725,8.725,0,0,0,2.125,2.959l-.8,1.289,2.72,1.689.8-1.291a8.7,8.7,0,0,0,3.6.589l.347,1.48,3.117-.731-.347-1.477a9.072,9.072,0,0,0,.875-.442,8.751,8.751,0,0,0,2.085-1.683l1.292.8,1.687-2.723-1.29-.8A8.762,8.762,0,0,0,554.531,232.023Zm-5.514,6.015a6.478,6.478,0,1,1-3.63-12.071,5.927,5.927,0,0,1,.762,0,6.48,6.48,0,0,1,2.868,12.073Z" transform="translate(-535.525 -222.191)" fill="#fff"/>
            </g>
          </g>
        </g>
      </g>
      <g id="Group_1720" data-name="Group 1720" transform="translate(0 0)">
        <g id="Group_1719" data-name="Group 1719">
          <g id="Group_1718" data-name="Group 1718">
            <g id="Group_1717" data-name="Group 1717">
              <g id="Group_1716" data-name="Group 1716">
                <path id="Path_785" data-name="Path 785" d="M539.222,247.249a.9.9,0,0,1-.35-.071,16.223,16.223,0,0,1-2.551-1.341.908.908,0,1,1,.985-1.526,14.437,14.437,0,0,0,2.265,1.191.908.908,0,0,1-.349,1.747ZM533.409,243a.911.911,0,0,1-.692-.32,16.472,16.472,0,0,1-1.668-2.349.908.908,0,0,1,1.568-.917A14.49,14.49,0,0,0,534.1,241.5a.909.909,0,0,1-.691,1.5Zm25.3-2.64a.909.909,0,0,1-.8-1.342,14.468,14.468,0,0,0,1.018-2.349.909.909,0,0,1,1.725.572,16.328,16.328,0,0,1-1.146,2.645A.911.911,0,0,1,558.709,240.362ZM530,235.853a.908.908,0,0,1-.892-.742,16.583,16.583,0,0,1-.275-2.867.909.909,0,0,1,.9-.916h.008a.908.908,0,0,1,.908.9,14.662,14.662,0,0,0,.245,2.551.909.909,0,0,1-.728,1.059A.952.952,0,0,1,530,235.853Zm30.572-2.445h-.025a.909.909,0,0,1-.884-.932c0-.124.005-.246.005-.371a14.733,14.733,0,0,0-.164-2.185.908.908,0,0,1,1.8-.272,16.557,16.557,0,0,1,.184,2.457c0,.14,0,.28-.005.419A.909.909,0,0,1,560.567,233.407Zm-30.208-4.745a.9.9,0,0,1-.256-.037.909.909,0,0,1-.616-1.127,16.334,16.334,0,0,1,1.055-2.682.908.908,0,1,1,1.625.811,14.368,14.368,0,0,0-.936,2.382A.911.911,0,0,1,530.358,228.662Zm28.712-2.3a.908.908,0,0,1-.82-.516,14.4,14.4,0,0,0-1.305-2.2.908.908,0,0,1,1.475-1.061,16.254,16.254,0,0,1,1.47,2.48.907.907,0,0,1-.819,1.3Zm-25.122-3.944a.909.909,0,0,1-.662-1.531c.106-.113.214-.223.323-.332a16.592,16.592,0,0,1,1.833-1.58.908.908,0,1,1,1.082,1.46,14.756,14.756,0,0,0-1.631,1.407c-.1.1-.192.193-.284.292A.9.9,0,0,1,533.948,222.422Zm19.487-2.415a.905.905,0,0,1-.488-.143,14.417,14.417,0,0,0-2.272-1.181.908.908,0,1,1,.692-1.679,16.263,16.263,0,0,1,2.557,1.33.908.908,0,0,1-.49,1.673Zm-6.8-2.343c-.028,0-.057,0-.087,0-.459-.044-.926-.065-1.391-.065a.908.908,0,0,1,0-1.817c.521,0,1.047.025,1.563.074a.908.908,0,0,1-.085,1.812Z" transform="translate(-528.828 -215.779)" fill="#fff"/>
              </g>
            </g>
          </g>
        </g>
      </g>
    </g>
    <g id="Group_1735" data-name="Group 1735" transform="translate(82.155 180.979)">
      <g id="Group_1722" data-name="Group 1722" transform="translate(20.855 0)">
        <path id="Path_786" data-name="Path 786" d="M115.513,187.39h32.272a7.452,7.452,0,0,1,7.431,7.43v67.416a7.453,7.453,0,0,1-7.431,7.431H115.513a7.454,7.454,0,0,1-7.432-7.431V194.82A7.453,7.453,0,0,1,115.513,187.39Z" transform="translate(-108.081 -187.39)" fill="#fff" fill-rule="evenodd"/>
      </g>
      <g id="Group_1723" data-name="Group 1723" transform="translate(23.369 9.272)">
        <rect id="Rectangle_430" data-name="Rectangle 430" width="42.107" height="64.41" fill="#06b3b9"/>
      </g>
      <g id="Group_1724" data-name="Group 1724" transform="translate(36.964 5.524)">
        <path id="Path_787" data-name="Path 787" d="M126.665,195.186h13.219a.848.848,0,0,0,.848-.848v-.017a.848.848,0,0,0-.848-.848H126.665a.848.848,0,0,0-.848.848v.017A.848.848,0,0,0,126.665,195.186Z" transform="translate(-125.817 -193.472)" fill="#2a445d" fill-rule="evenodd"/>
      </g>
      <g id="Group_1725" data-name="Group 1725" transform="translate(43.43 2.05)">
        <circle id="Ellipse_89" data-name="Ellipse 89" cx="0.994" cy="0.994" r="0.994" fill="#2a445d"/>
      </g>
      <g id="Group_1734" data-name="Group 1734" transform="translate(0 23.586)">
        <g id="Group_1726" data-name="Group 1726" transform="translate(24.913)">
          <circle id="Ellipse_90" data-name="Ellipse 90" cx="19.446" cy="19.446" r="19.446" fill="#fff"/>
        </g>
        <g id="Group_1727" data-name="Group 1727" transform="translate(29.113 4.2)">
          <circle id="Ellipse_91" data-name="Ellipse 91" cx="15.246" cy="15.246" r="15.246" fill="#ff7443"/>
        </g>
        <g id="Group_1728" data-name="Group 1728" transform="translate(34.045 9.132)">
          <circle id="Ellipse_92" data-name="Ellipse 92" cx="10.314" cy="10.314" r="10.314" fill="#fff"/>
        </g>
        <g id="Group_1729" data-name="Group 1729" transform="translate(39.551 14.638)">
          <circle id="Ellipse_93" data-name="Ellipse 93" cx="4.808" cy="4.808" r="4.808" fill="#ff7443"/>
        </g>
        <g id="Group_1733" data-name="Group 1733" transform="translate(0 16.517)">
          <g id="Group_1730" data-name="Group 1730" transform="translate(7.613 1.567)">
            <path id="Path_788" data-name="Path 788" d="M130.248,235.991H94.864a1.362,1.362,0,1,1,0-2.725h35.384a1.362,1.362,0,1,1,0,2.725Z" transform="translate(-93.502 -233.266)" fill="#50667e"/>
          </g>
          <g id="Group_1732" data-name="Group 1732">
            <g id="Group_1731" data-name="Group 1731">
              <path id="Path_789" data-name="Path 789" d="M94.768,234.772,90.416,237.4H85.121l2.928-2.929-2.928-2.929h5.295l4.353,2.627Z" transform="translate(-85.121 -231.541)" fill="#50667e"/>
            </g>
          </g>
        </g>
      </g>
    </g>
    <g id="Group_1739" data-name="Group 1739" transform="translate(399.083 188.967)">
      <g id="Group_1736" data-name="Group 1736">
        <path id="Path_790" data-name="Path 790" d="M489.449,219.289h-4.274a22.863,22.863,0,0,0-2.792-6.653l.014-.015,3.023-3.023a1.721,1.721,0,0,0,0-2.434l-5.256-5.257a1.721,1.721,0,0,0-2.434,0l-3.023,3.023a22.828,22.828,0,0,0-6.68-2.73v-4.294a1.721,1.721,0,0,0-1.721-1.721h-7.435a1.721,1.721,0,0,0-1.72,1.721v4.275a22.834,22.834,0,0,0-6.654,2.792l-.015-.014-3.023-3.023a1.72,1.72,0,0,0-2.433,0l-5.257,5.257a1.722,1.722,0,0,0,0,2.433l3.023,3.023a22.853,22.853,0,0,0-2.73,6.68h-4.294a1.721,1.721,0,0,0-1.721,1.72v7.435a1.722,1.722,0,0,0,1.721,1.721h4.274a22.863,22.863,0,0,0,2.792,6.653l-.014.015-3.023,3.023a1.72,1.72,0,0,0,0,2.433l5.257,5.257a1.72,1.72,0,0,0,2.433,0l3.023-3.023a22.829,22.829,0,0,0,6.68,2.73v4.3a1.721,1.721,0,0,0,1.721,1.721h7.435a1.721,1.721,0,0,0,1.721-1.721v-4.275a22.839,22.839,0,0,0,6.653-2.792l.014.014,3.024,3.023a1.72,1.72,0,0,0,2.433,0l5.257-5.257a1.72,1.72,0,0,0,0-2.433l-3.023-3.023a22.856,22.856,0,0,0,2.731-6.68h4.294a1.721,1.721,0,0,0,1.721-1.721V221.01A1.722,1.722,0,0,0,489.449,219.289Z" transform="translate(-434.043 -196.184)" fill="#06b3b9"/>
      </g>
      <g id="Group_1737" data-name="Group 1737" transform="translate(10.341 10.661)">
        <path id="Path_791" data-name="Path 791" d="M463.651,207.921a18.223,18.223,0,1,0,18.223,18.223A18.223,18.223,0,0,0,463.651,207.921Zm0,33.316a15.092,15.092,0,1,1,15.091-15.091A15.091,15.091,0,0,1,463.651,241.237Z" transform="translate(-445.428 -207.921)" fill="#1ed9de"/>
      </g>
      <g id="Group_1738" data-name="Group 1738" transform="translate(17.499 17.82)">
        <path id="Path_792" data-name="Path 792" d="M464.374,215.8a11.065,11.065,0,1,0,11.064,11.065A11.065,11.065,0,0,0,464.374,215.8Z" transform="translate(-453.309 -215.803)" fill="#1ed9de"/>
      </g>
    </g>
    <g id="Group_1743" data-name="Group 1743" transform="translate(187.223 178.242)">
      <g id="Group_1740" data-name="Group 1740" transform="translate(0 0)">
        <path id="Path_793" data-name="Path 793" d="M278.977,216.979h-6.032A32.21,32.21,0,0,0,269,207.59l.019-.02,4.265-4.265a2.429,2.429,0,0,0,0-3.434l-7.418-7.418a2.429,2.429,0,0,0-3.434,0l-4.264,4.265a32.238,32.238,0,0,0-9.425-3.853V186.8a2.428,2.428,0,0,0-2.428-2.429H235.827A2.428,2.428,0,0,0,233.4,186.8v6.032a32.2,32.2,0,0,0-9.389,3.94l-.02-.019-4.265-4.265a2.427,2.427,0,0,0-3.433,0l-7.419,7.418a2.429,2.429,0,0,0,0,3.433l4.265,4.265a32.21,32.21,0,0,0-3.852,9.425h-6.061a2.428,2.428,0,0,0-2.428,2.428v10.492a2.428,2.428,0,0,0,2.428,2.428h6.032a32.212,32.212,0,0,0,3.941,9.388l-.019.02-4.266,4.265a2.429,2.429,0,0,0,0,3.434l7.418,7.418a2.427,2.427,0,0,0,3.433,0l4.265-4.265a32.243,32.243,0,0,0,9.425,3.853v6.061a2.428,2.428,0,0,0,2.428,2.428h10.492a2.428,2.428,0,0,0,2.428-2.428v-6.033a32.185,32.185,0,0,0,9.388-3.94l.02.019,4.266,4.265a2.427,2.427,0,0,0,3.433,0l7.418-7.418a2.427,2.427,0,0,0,0-3.433l-4.265-4.265a32.232,32.232,0,0,0,3.853-9.425h6.06A2.428,2.428,0,0,0,281.4,229.9V219.408A2.426,2.426,0,0,0,278.977,216.979Z" transform="translate(-200.796 -184.376)" fill="#06b3b9"/>
      </g>
      <g id="Group_1741" data-name="Group 1741" transform="translate(14.589 15.042)">
        <path id="Path_794" data-name="Path 794" d="M242.573,200.937a25.715,25.715,0,1,0,25.715,25.716A25.715,25.715,0,0,0,242.573,200.937Zm0,47.012a21.3,21.3,0,1,1,21.3-21.3A21.3,21.3,0,0,1,242.573,247.949Z" transform="translate(-216.858 -200.937)" fill="#1ed9de"/>
      </g>
      <g id="Group_1742" data-name="Group 1742" transform="translate(24.692 25.146)">
        <path id="Path_795" data-name="Path 795" d="M243.593,212.06a15.613,15.613,0,1,0,15.613,15.613A15.612,15.612,0,0,0,243.593,212.06Z" transform="translate(-227.981 -212.06)" fill="#1ed9de"/>
      </g>
    </g>
    <g id="XMLID_2_" transform="translate(589.728 239.032)">
      <g id="Group_1746" data-name="Group 1746">
        <g id="Group_1745" data-name="Group 1745">
          <g id="Group_1744" data-name="Group 1744">
            <path id="Path_796" data-name="Path 796" d="M669.515,251.3v6.606H656.809v-.233a6.373,6.373,0,0,0-6.374-6.373h-.129a6.372,6.372,0,0,0-6.373,6.373V346.74h65.572V251.3Z" transform="translate(-643.934 -251.303)" fill="#cbe1ef"/>
          </g>
        </g>
      </g>
      <g id="Group_1748" data-name="Group 1748" transform="translate(6.143)">
        <g id="Group_1747" data-name="Group 1747">
          <path id="Path_797" data-name="Path 797" d="M650.7,251.3c2.857,0,6.767,1.622,6.767,7.025l.046,81.558c0,3.75,1.609,6.892,6.147,6.892,2.863,0,6.927-.819,6.927-7.311l48.8.137-.046-81.276c0-3.884-3.841-7.026-8.561-7.025Z" transform="translate(-650.697 -251.303)" fill="#f1f8fe"/>
        </g>
      </g>
      <g id="Group_1752" data-name="Group 1752" transform="translate(17.866 6.421)">
        <g id="Group_1749" data-name="Group 1749" transform="translate(0 11.691)">
          <rect id="Rectangle_431" data-name="Rectangle 431" width="50.494" height="2.198" fill="#cbe1ef"/>
        </g>
        <g id="Group_1750" data-name="Group 1750" transform="translate(0 5.845)">
          <rect id="Rectangle_432" data-name="Rectangle 432" width="50.494" height="2.198" fill="#cbe1ef"/>
        </g>
        <g id="Group_1751" data-name="Group 1751">
          <rect id="Rectangle_433" data-name="Rectangle 433" width="50.494" height="2.198" fill="#cbe1ef"/>
        </g>
      </g>
      <g id="Group_1757" data-name="Group 1757" transform="translate(19.5 55.408)">
        <g id="XMLID_71_">
          <g id="XMLID_3_" transform="translate(0.163)">
            <g id="Group_1753" data-name="Group 1753">
              <path id="Path_798" data-name="Path 798" d="M735.278,312.3v32.749s.681,7.332-9.617,7.332c-14.693,0-60.079-.009-60.079-.009.878-.025,6.359-.5,6.359-7.308V320.289s-.77-7.984,7.507-7.984Z" transform="translate(-665.582 -312.305)" fill="#fff"/>
            </g>
          </g>
          <g id="XMLID_72_" transform="translate(0 40.072)">
            <g id="Group_1754" data-name="Group 1754">
              <path id="Path_799" data-name="Path 799" d="M665.4,356.422h.164C665.464,356.425,665.4,356.422,665.4,356.422Z" transform="translate(-665.403 -356.422)" fill="#fff"/>
            </g>
          </g>
        </g>
        <g id="Group_1756" data-name="Group 1756" transform="translate(14.024 0.004)">
          <g id="Group_1755" data-name="Group 1755">
            <path id="Path_800" data-name="Path 800" d="M686.274,321.239c2.41-7.91-5.431-8.93-5.431-8.93h55.829c8.11,0,8.768,5.014,8.046,8.93Z" transform="translate(-680.843 -312.309)" fill="#cbe1ef"/>
          </g>
        </g>
      </g>
      <g id="XMLID_645_" transform="translate(59.862 66.049)">
        <g id="XMLID_18380_" transform="translate(12.024 0.001)">
          <path id="Path_801" data-name="Path 801" d="M723.077,336.034l11.409-3.713a11.811,11.811,0,0,0-11.409-8.3Z" transform="translate(-723.077 -324.021)" fill="#ff7443"/>
        </g>
        <g id="XMLID_18374_" transform="translate(0.613 8.301)">
          <path id="Path_802" data-name="Path 802" d="M721.925,336.872l-11.411,3.71a12,12,0,1,0,22.819-7.424h0Z" transform="translate(-710.514 -333.159)" fill="#50667e"/>
        </g>
        <g id="XMLID_18372_" transform="translate(0 2.295)">
          <path id="Path_803" data-name="Path 803" d="M721.863,336.266l-7.054-9.719a11.832,11.832,0,0,0-4.357,13.429Z" transform="translate(-709.839 -326.547)" fill="#ffd55c"/>
        </g>
        <g id="XMLID_18365_" transform="translate(4.97)">
          <path id="Path_804" data-name="Path 804" d="M722.365,336.034V324.02a11.5,11.5,0,0,0-7.054,2.294Z" transform="translate(-715.311 -324.02)" fill="#70aec4"/>
        </g>
      </g>
      <g id="Group_1758" data-name="Group 1758" transform="translate(29.269 81.084)">
        <rect id="Rectangle_434" data-name="Rectangle 434" width="28.932" height="2.198" fill="#cbe1ef"/>
      </g>
      <g id="Group_1759" data-name="Group 1759" transform="translate(29.269 87.202)">
        <rect id="Rectangle_435" data-name="Rectangle 435" width="28.932" height="2.198" fill="#cbe1ef"/>
      </g>
      <g id="Group_1760" data-name="Group 1760" transform="translate(29.269 74.967)">
        <rect id="Rectangle_436" data-name="Rectangle 436" width="28.932" height="2.198" fill="#cbe1ef"/>
      </g>
      <g id="Group_1761" data-name="Group 1761" transform="translate(29.269 68.85)">
        <rect id="Rectangle_437" data-name="Rectangle 437" width="28.932" height="2.198" fill="#cbe1ef"/>
      </g>
      <g id="XMLID_877_" transform="translate(17.866 25.248)">
        <g id="XMLID_878_">
          <g id="XMLID_881_">
            <path id="Path_805" data-name="Path 805" d="M669.2,282.791l5.833-2.839,5.592,2.868h5.592l5.672-2.809,5.753,5.62,5.592-2.81,5.673-2.809,5.195,2.58v22.973H663.6V279.1Z" transform="translate(-663.604 -279.1)" fill="#ffd55c"/>
          </g>
        </g>
        <g id="XMLID_883_" transform="translate(0 3.691)">
          <g id="XMLID_884_">
            <path id="Path_806" data-name="Path 806" d="M669.115,289.01l5.834-5.846,6.705,6.532,10.722-3.576,5.181,6.114,5.672-6.23,5.753,2.9,5.115-2.544v19.579H663.6V286.12Z" transform="translate(-663.604 -283.164)" fill="#1ed9de"/>
          </g>
        </g>
        <g id="XMLID_890_" transform="translate(0 6.531)">
          <g id="XMLID_931_">
            <path id="Path_807" data-name="Path 807" d="M669.276,286.29l5.591,2.839,5.365,6.248,6.06-3.351,5.672-2.8,5.672,8.5,5.672-2.886,5.672,2.967,5.115-2.687v11.106H663.6V289.7Z" transform="translate(-663.604 -286.29)" fill="#264463"/>
          </g>
        </g>
        <g id="XMLID_935_" transform="translate(0 12.326)">
          <g id="XMLID_955_">
            <path id="Path_808" data-name="Path 808" d="M669.2,296.814l5.672-4.144,5.592,5.679,5.753-2.839,3.327,4.874,12.138,1.107,7.225-6.039,5.195,2.615v8.742H663.6V294.9Z" transform="translate(-663.604 -292.67)" fill="#ff7443"/>
          </g>
        </g>
      </g>
    </g>
    <g id="Group_1774" data-name="Group 1774" transform="translate(294.434 117.73)">
      <g id="Group_1763" data-name="Group 1763" transform="translate(0.02)">
        <g id="Group_1762" data-name="Group 1762">
          <circle id="Ellipse_94" data-name="Ellipse 94" cx="24.608" cy="24.608" r="24.608" fill="#50667e"/>
        </g>
      </g>
      <g id="Group_1765" data-name="Group 1765" transform="translate(7.348 0)">
        <g id="Group_1764" data-name="Group 1764">
          <path id="Path_809" data-name="Path 809" d="M344.2,166.972c-9.528,0-17.28-11.04-17.28-24.608s7.752-24.608,17.28-24.608,17.279,11.04,17.279,24.608S353.728,166.972,344.2,166.972Zm0-46.991c-8.243,0-14.949,10.041-14.949,22.384s6.706,22.384,14.949,22.384,14.948-10.041,14.948-22.384S352.443,119.98,344.2,119.98Z" transform="translate(-326.92 -117.756)" fill="#fff"/>
        </g>
      </g>
      <g id="Group_1767" data-name="Group 1767" transform="translate(16.623 0)">
        <g id="Group_1766" data-name="Group 1766">
          <path id="Path_810" data-name="Path 810" d="M345.136,166.972c-5.255,0-8-12.379-8-24.608s2.749-24.608,8-24.608,8,12.379,8,24.608S350.39,166.972,345.136,166.972Zm0-46.991c-2.313,0-5.673,8.72-5.673,22.384s3.36,22.384,5.673,22.384,5.673-8.721,5.673-22.384S347.449,119.98,345.136,119.98Z" transform="translate(-337.131 -117.756)" fill="#fff"/>
        </g>
      </g>
      <g id="Group_1769" data-name="Group 1769" transform="translate(5.808 6.975)">
        <g id="Group_1768" data-name="Group 1768">
          <path id="Path_811" data-name="Path 811" d="M344.044,135.184a25.885,25.885,0,0,1-18.82-8.155l1.7-1.594a23.461,23.461,0,0,0,34.237,0l1.7,1.594A25.883,25.883,0,0,1,344.044,135.184Z" transform="translate(-325.224 -125.435)" fill="#fff"/>
        </g>
      </g>
      <g id="Group_1771" data-name="Group 1771" transform="translate(5.854 32.583)">
        <g id="Group_1770" data-name="Group 1770">
          <path id="Path_812" data-name="Path 812" d="M326.974,163.333l-1.7-1.6a25.789,25.789,0,0,1,37.547,0l-1.7,1.6a23.455,23.455,0,0,0-34.15,0Z" transform="translate(-325.275 -153.628)" fill="#fff"/>
        </g>
      </g>
      <g id="Group_1773" data-name="Group 1773" transform="translate(0 23.442)">
        <g id="Group_1772" data-name="Group 1772">
          <rect id="Rectangle_438" data-name="Rectangle 438" width="49.237" height="2.331" fill="#fff"/>
        </g>
      </g>
    </g>
    <g id="Group_1775" data-name="Group 1775" transform="translate(226.205 138.235)">
      <path id="Path_813" data-name="Path 813" d="M260.7,160.965a16.861,16.861,0,0,1,9.637,2.951,12.5,12.5,0,0,1,7.314-4.095,17.172,17.172,0,0,1-.183-2.5,16.987,16.987,0,1,1,33.491,4,17.368,17.368,0,0,1,20.9,16.723H243.713A17.132,17.132,0,0,1,260.7,160.965Z" transform="translate(-243.713 -140.331)" fill="#fff"/>
    </g>
    <g id="Group_1776" data-name="Group 1776" transform="translate(335.772 130.136)">
      <path id="Path_814" data-name="Path 814" d="M377.7,147.645a13.255,13.255,0,0,1,7.58,2.322,9.834,9.834,0,0,1,5.753-3.221,13.364,13.364,0,1,1,26.2,1.184,13.66,13.66,0,0,1,16.441,13.153H364.341A13.478,13.478,0,0,1,377.7,147.645Z" transform="translate(-364.341 -131.414)" fill="#fff"/>
    </g>
    <g id="Group_1830" data-name="Group 1830" transform="translate(116.624 250.246)">
      <g id="Group_1779" data-name="Group 1779" transform="translate(0 77.05)">
        <g id="Group_1778" data-name="Group 1778">
          <g id="Group_1777" data-name="Group 1777">
            <path id="Path_815" data-name="Path 815" d="M123.07,348.477v3.309a3.271,3.271,0,0,0,3.233,3.309H253.179a3.272,3.272,0,0,0,3.233-3.309v-3.309Z" transform="translate(-123.07 -348.477)" fill="#2a445d"/>
          </g>
        </g>
      </g>
      <g id="Group_1782" data-name="Group 1782" transform="translate(6.168)">
        <g id="Group_1781" data-name="Group 1781">
          <g id="Group_1780" data-name="Group 1780">
            <path id="Path_816" data-name="Path 816" d="M250.865,340.7v-70a6.97,6.97,0,0,0-6.888-7.05H136.749a6.97,6.97,0,0,0-6.888,7.05v70Z" transform="translate(-129.861 -263.649)" fill="#fff"/>
          </g>
        </g>
      </g>
      <g id="Group_1785" data-name="Group 1785" transform="translate(12.178 6.681)">
        <g id="Group_1784" data-name="Group 1784">
          <g id="Group_1783" data-name="Group 1783">
            <rect id="Rectangle_439" data-name="Rectangle 439" width="108.987" height="64.954" fill="#70aec4"/>
          </g>
        </g>
      </g>
      <g id="Group_1788" data-name="Group 1788" transform="translate(64.893 1.553)">
        <g id="Group_1787" data-name="Group 1787">
          <g id="Group_1786" data-name="Group 1786">
            <ellipse id="Ellipse_95" data-name="Ellipse 95" cx="1.778" cy="1.819" rx="1.778" ry="1.819" fill="#fff"/>
          </g>
        </g>
      </g>
      <g id="Group_1792" data-name="Group 1792" transform="translate(12.178 6.681)">
        <g id="Group_1791" data-name="Group 1791">
          <g id="Group_1790" data-name="Group 1790">
            <g id="Group_1789" data-name="Group 1789">
              <rect id="Rectangle_440" data-name="Rectangle 440" width="108.987" height="5.452" fill="#cfe2f1"/>
            </g>
          </g>
        </g>
      </g>
      <g id="Group_1829" data-name="Group 1829" transform="translate(35.715 15.082)">
        <g id="Group_1796" data-name="Group 1796" transform="translate(1.243 37.494)">
          <g id="Group_1795" data-name="Group 1795">
            <g id="Group_1794" data-name="Group 1794">
              <g id="Group_1793" data-name="Group 1793">
                <rect id="Rectangle_441" data-name="Rectangle 441" width="5.433" height="15.412" fill="#50667e"/>
              </g>
            </g>
          </g>
        </g>
        <g id="Group_1801" data-name="Group 1801" transform="translate(12.108 30.788)">
          <g id="Group_1800" data-name="Group 1800">
            <g id="Group_1799" data-name="Group 1799">
              <g id="Group_1798" data-name="Group 1798">
                <g id="Group_1797" data-name="Group 1797">
                  <rect id="Rectangle_442" data-name="Rectangle 442" width="5.433" height="22.118" fill="#fff"/>
                </g>
              </g>
            </g>
          </g>
        </g>
        <g id="Group_1806" data-name="Group 1806" transform="translate(22.975 35.159)">
          <g id="Group_1805" data-name="Group 1805">
            <g id="Group_1804" data-name="Group 1804">
              <g id="Group_1803" data-name="Group 1803">
                <g id="Group_1802" data-name="Group 1802">
                  <rect id="Rectangle_443" data-name="Rectangle 443" width="5.433" height="17.747" fill="#ff7443"/>
                </g>
              </g>
            </g>
          </g>
        </g>
        <g id="Group_1810" data-name="Group 1810" transform="translate(33.84 26.127)">
          <g id="Group_1809" data-name="Group 1809">
            <g id="Group_1808" data-name="Group 1808">
              <g id="Group_1807" data-name="Group 1807">
                <rect id="Rectangle_444" data-name="Rectangle 444" width="5.433" height="26.779" fill="#50667e"/>
              </g>
            </g>
          </g>
        </g>
        <g id="Group_1815" data-name="Group 1815" transform="translate(44.705 17.968)">
          <g id="Group_1814" data-name="Group 1814">
            <g id="Group_1813" data-name="Group 1813">
              <g id="Group_1812" data-name="Group 1812">
                <g id="Group_1811" data-name="Group 1811">
                  <rect id="Rectangle_445" data-name="Rectangle 445" width="5.433" height="34.938" fill="#ff7443"/>
                </g>
              </g>
            </g>
          </g>
        </g>
        <g id="Group_1820" data-name="Group 1820" transform="translate(55.571 13.436)">
          <g id="Group_1819" data-name="Group 1819">
            <g id="Group_1818" data-name="Group 1818">
              <g id="Group_1817" data-name="Group 1817">
                <g id="Group_1816" data-name="Group 1816">
                  <rect id="Rectangle_446" data-name="Rectangle 446" width="5.433" height="39.47" fill="#fff"/>
                </g>
              </g>
            </g>
          </g>
        </g>
        <g id="Group_1824" data-name="Group 1824" transform="translate(0 4.825)">
          <g id="Group_1821" data-name="Group 1821" transform="translate(0 1.721)">
            <path id="Path_817" data-name="Path 817" d="M163.3,314.072a.908.908,0,0,1-.486-1.676l14.543-9.195a.908.908,0,0,1,.834-.071l9.257,3.851,26.223-19.343a.908.908,0,0,1,1.078,1.461l-26.637,19.648a.909.909,0,0,1-.888.108l-9.3-3.868-14.144,8.942A.9.9,0,0,1,163.3,314.072Z" transform="translate(-162.39 -287.46)" fill="#fff"/>
          </g>
          <g id="Group_1823" data-name="Group 1823" transform="translate(49.264)">
            <g id="Group_1822" data-name="Group 1822">
              <path id="Path_818" data-name="Path 818" d="M220.285,291.209l2.463-5.644-6.12.688Z" transform="translate(-216.628 -285.565)" fill="#fff"/>
            </g>
          </g>
        </g>
        <g id="Group_1825" data-name="Group 1825" transform="translate(22.217 23.536)">
          <circle id="Ellipse_96" data-name="Ellipse 96" cx="2.965" cy="2.965" r="2.965" fill="#50667e"/>
        </g>
        <g id="Group_1826" data-name="Group 1826" transform="translate(12.881 21.101)">
          <circle id="Ellipse_97" data-name="Ellipse 97" cx="2.33" cy="2.33" r="2.33" fill="#fff"/>
        </g>
        <g id="Group_1827" data-name="Group 1827" transform="translate(53.548)">
          <circle id="Ellipse_98" data-name="Ellipse 98" cx="3.606" cy="3.606" r="3.606" fill="#50667e"/>
        </g>
        <g id="Group_1828" data-name="Group 1828" transform="translate(12.132 20.351)">
          <circle id="Ellipse_99" data-name="Ellipse 99" cx="3.079" cy="3.079" r="3.079" fill="#50667e"/>
        </g>
      </g>
    </g>
    <g id="Group_1839" data-name="Group 1839" transform="translate(393.128 130.136)">
      <g id="Group_1832" data-name="Group 1832" transform="translate(0 0.256)">
        <g id="Group_1831" data-name="Group 1831">
          <path id="Path_819" data-name="Path 819" d="M433.658,131.814l-5.6,3.893a.658.658,0,0,0-.456.277.839.839,0,0,0,0,.852.651.651,0,0,0,.456.277l5.6,3.892a.667.667,0,1,0,.763-1.095l-5.035-3.5,5.035-3.5a.667.667,0,1,0-.763-1.1Z" transform="translate(-427.488 -131.696)" fill="#fff"/>
        </g>
      </g>
      <g id="Group_1834" data-name="Group 1834" transform="translate(5.99 0.256)">
        <g id="Group_1833" data-name="Group 1833">
          <path id="Path_820" data-name="Path 820" d="M440.255,131.814l-5.6,3.893a.712.712,0,0,0,0,1.406l5.6,3.892a.667.667,0,0,0,.763-1.095l-5.039-3.5,5.039-3.5a.667.667,0,0,0-.763-1.1Z" transform="translate(-434.082 -131.696)" fill="#fff"/>
        </g>
      </g>
      <g id="Group_1836" data-name="Group 1836" transform="translate(11.981)">
        <g id="Group_1835" data-name="Group 1835">
          <path id="Path_821" data-name="Path 821" d="M446.847,131.532l-5.6,3.891a.66.66,0,0,0-.456.278.844.844,0,0,0,0,.852.659.659,0,0,0,.456.277l5.6,3.892a.667.667,0,1,0,.764-1.094l-5.037-3.5,5.037-3.5a.668.668,0,0,0-.764-1.1Z" transform="translate(-440.678 -131.414)" fill="#fff"/>
        </g>
      </g>
      <g id="Group_1838" data-name="Group 1838" transform="translate(17.97)">
        <g id="Group_1837" data-name="Group 1837">
          <path id="Path_822" data-name="Path 822" d="M453.444,131.532l-5.6,3.891a.713.713,0,0,0,0,1.407l5.6,3.892a.667.667,0,1,0,.761-1.094l-5.037-3.5,5.037-3.5a.667.667,0,1,0-.761-1.1Z" transform="translate(-447.272 -131.414)" fill="#fff"/>
        </g>
      </g>
    </g>
    <g id="Group_1848" data-name="Group 1848" transform="translate(68.32 246.829)">
      <g id="Group_1841" data-name="Group 1841" transform="translate(17.971 0)">
        <g id="Group_1840" data-name="Group 1840">
          <path id="Path_823" data-name="Path 823" d="M90.724,269.2l5.6-3.893a.657.657,0,0,0,.571-.7.673.673,0,0,0-.115-.425.655.655,0,0,0-.456-.277l-5.6-3.892a.667.667,0,1,0-.763,1.094L95,264.6l-5.035,3.5a.667.667,0,1,0,.763,1.094Z" transform="translate(-89.675 -259.887)" fill="#fff"/>
        </g>
      </g>
      <g id="Group_1843" data-name="Group 1843" transform="translate(11.979 0)">
        <g id="Group_1842" data-name="Group 1842">
          <path id="Path_824" data-name="Path 824" d="M84.127,269.2l5.6-3.893a.711.711,0,0,0,0-1.405l-5.6-3.892a.667.667,0,0,0-.763,1.094l5.038,3.5-5.038,3.5a.667.667,0,0,0,.763,1.094Z" transform="translate(-83.078 -259.887)" fill="#fff"/>
        </g>
      </g>
      <g id="Group_1845" data-name="Group 1845" transform="translate(5.991 0.255)">
        <g id="Group_1844" data-name="Group 1844">
          <path id="Path_825" data-name="Path 825" d="M77.536,269.479l5.6-3.892a.713.713,0,0,0,0-1.407l-5.6-3.892a.668.668,0,1,0-.764,1.1l5.037,3.5-5.037,3.5a.668.668,0,0,0,.764,1.1Z" transform="translate(-76.486 -260.168)" fill="#fff"/>
        </g>
      </g>
      <g id="Group_1847" data-name="Group 1847" transform="translate(0 0.255)">
        <g id="Group_1846" data-name="Group 1846">
          <path id="Path_826" data-name="Path 826" d="M70.938,269.479l5.6-3.892a.713.713,0,0,0,0-1.407l-5.6-3.892a.667.667,0,1,0-.761,1.1l5.036,3.5-5.036,3.5a.667.667,0,1,0,.761,1.1Z" transform="translate(-69.89 -260.168)" fill="#fff"/>
        </g>
      </g>
    </g>
    <g id="Group_1895" data-name="Group 1895" transform="translate(426.507 117.475)">
      <g id="Group_1894" data-name="Group 1894">
        <g id="Group_1893" data-name="Group 1893" clip-path="url(#clip-path)">
          <g id="Group_1851" data-name="Group 1851" transform="translate(-18.771 0.336)">
            <g id="Group_1849" data-name="Group 1849">
              <path id="Path_827" data-name="Path 827" d="M458.275,132.085H445.617V119.893h38.875v-2.048h-39.9a1.024,1.024,0,0,0-1.024,1.024v14.239a1.023,1.023,0,0,0,1.024,1.024h13.682a1.024,1.024,0,1,0,0-2.047Z" transform="translate(-443.57 -117.845)" fill="#06b3b9"/>
            </g>
            <g id="Group_1850" data-name="Group 1850" transform="translate(45.005)">
              <path id="Path_828" data-name="Path 828" d="M531.5,117.845H493.118v2.048h37.36v24.755H526.1V126.966a1.023,1.023,0,0,0-1.024-1.024h-6.143a1.023,1.023,0,0,0-1.024,1.024v17.682H498.836a1.024,1.024,0,1,0,0,2.047h20.1a1.024,1.024,0,0,0,1.025-1.024V127.99h4.094v17.682a1.024,1.024,0,0,0,1.025,1.024H531.5a1.023,1.023,0,0,0,1.024-1.024v-26.8A1.024,1.024,0,0,0,531.5,117.845Z" transform="translate(-493.118 -117.845)" fill="#06b3b9"/>
            </g>
          </g>
          <g id="Group_1853" data-name="Group 1853" transform="translate(7.195 0.337)">
            <g id="Group_1852" data-name="Group 1852">
              <path id="Path_829" data-name="Path 829" d="M473.182,134.691a1.024,1.024,0,0,1-1.025-1.024v-14.8a1.024,1.024,0,0,1,2.048,0v14.8A1.024,1.024,0,0,1,473.182,134.691Z" transform="translate(-472.157 -117.846)" fill="#06b3b9"/>
            </g>
          </g>
          <g id="Group_1855" data-name="Group 1855" transform="translate(20.092 0.337)">
            <g id="Group_1854" data-name="Group 1854">
              <path id="Path_830" data-name="Path 830" d="M487.381,128.27a1.024,1.024,0,0,1-1.025-1.024V118.87a1.024,1.024,0,0,1,2.048,0v8.376A1.024,1.024,0,0,1,487.381,128.27Z" transform="translate(-486.356 -117.846)" fill="#06b3b9"/>
            </g>
          </g>
          <g id="Group_1857" data-name="Group 1857" transform="translate(20.093 7.737)">
            <g id="Group_1856" data-name="Group 1856">
              <path id="Path_831" data-name="Path 831" d="M492.632,171.735a1.024,1.024,0,0,1-1.024-1.024V158.334h-4.226a1.024,1.024,0,0,1-1.025-1.024v-22.9a1.024,1.024,0,0,1,1.025-1.024H505.01V128.04H492.073a1.024,1.024,0,1,1,0-2.047h13.96a1.024,1.024,0,0,1,1.025,1.024v7.4a1.024,1.024,0,0,1-1.025,1.024H488.4v20.847h4.226a1.024,1.024,0,0,1,1.025,1.024v13.4A1.023,1.023,0,0,1,492.632,171.735Z" transform="translate(-486.357 -125.993)" fill="#06b3b9"/>
            </g>
          </g>
          <g id="Group_1859" data-name="Group 1859" transform="translate(25.064 0.337)">
            <g id="Group_1858" data-name="Group 1858">
              <path id="Path_832" data-name="Path 832" d="M499.275,170.41a1.023,1.023,0,0,1-1.024-1.024V152.281h-5.4a1.024,1.024,0,0,1-1.025-1.024v-13.4a1.024,1.024,0,0,1,1.025-1.024H511.1V118.87a1.024,1.024,0,0,1,2.048,0v18.985a1.024,1.024,0,0,1-1.024,1.025H493.878v11.354h5.4a1.024,1.024,0,0,1,1.025,1.024v18.129A1.024,1.024,0,0,1,499.275,170.41Z" transform="translate(-491.83 -117.846)" fill="#06b3b9"/>
            </g>
          </g>
          <g id="Group_1861" data-name="Group 1861" transform="translate(-12.35 27.139)">
            <g id="Group_1860" data-name="Group 1860">
              <path id="Path_833" data-name="Path 833" d="M484.105,149.4H451.664a1.024,1.024,0,1,1,0-2.048h32.442a1.024,1.024,0,0,1,0,2.048Z" transform="translate(-450.639 -147.354)" fill="#06b3b9"/>
            </g>
          </g>
          <g id="Group_1863" data-name="Group 1863" transform="translate(-18.77 32.166)">
            <g id="Group_1862" data-name="Group 1862">
              <path id="Path_834" data-name="Path 834" d="M451.016,169.176h-6.422a1.024,1.024,0,0,1,0-2.048h5.4V153.913a1.025,1.025,0,0,1,1.025-1.025h25.966a1.025,1.025,0,0,1,1.025,1.025v11.26h5.452a1.024,1.024,0,1,1,0,2.047h-6.476a1.024,1.024,0,0,1-1.024-1.024V154.935H452.04v13.216A1.024,1.024,0,0,1,451.016,169.176Z" transform="translate(-443.571 -152.888)" fill="#06b3b9"/>
            </g>
          </g>
          <g id="Group_1865" data-name="Group 1865" transform="translate(0.66 39.287)">
            <g id="Group_1864" data-name="Group 1864">
              <path id="Path_835" data-name="Path 835" d="M474.755,174.92a1.024,1.024,0,0,1-1.025-1.024v-5.4h-7.743a1.024,1.024,0,0,1-1.025-1.024v-5.723a1.025,1.025,0,0,1,1.025-1.025h6.534a1.024,1.024,0,0,1,0,2.048h-5.511v3.675h7.744a1.024,1.024,0,0,1,1.024,1.024V173.9A1.024,1.024,0,0,1,474.755,174.92Z" transform="translate(-464.963 -160.728)" fill="#06b3b9"/>
            </g>
          </g>
          <g id="Group_1867" data-name="Group 1867" transform="translate(-5.928 38.031)">
            <g id="Group_1866" data-name="Group 1866">
              <path id="Path_836" data-name="Path 836" d="M458.734,174.793a1.024,1.024,0,0,1-1.024-1.024v-13.4a1.024,1.024,0,0,1,2.048,0v13.4A1.024,1.024,0,0,1,458.734,174.793Z" transform="translate(-457.71 -159.345)" fill="#06b3b9"/>
            </g>
          </g>
          <g id="Group_1869" data-name="Group 1869" transform="translate(37.628 27.14)">
            <g id="Group_1868" data-name="Group 1868">
              <path id="Path_837" data-name="Path 837" d="M506.687,168.668a1.024,1.024,0,0,1-1.024-1.024V148.38a1.024,1.024,0,1,1,2.048,0v19.265A1.024,1.024,0,0,1,506.687,168.668Z" transform="translate(-505.663 -147.355)" fill="#06b3b9"/>
            </g>
          </g>
          <g id="Group_1872" data-name="Group 1872" transform="translate(-18.771 7.737)">
            <g id="Group_1870" data-name="Group 1870" transform="translate(50.291 24.429)">
              <path id="Path_838" data-name="Path 838" d="M532.037,152.888H513.889a1.025,1.025,0,0,0-1.025,1.025v7.119a1.024,1.024,0,0,0,1.025,1.024h11.726a1.024,1.024,0,0,0,0-2.048h-10.7v-5.071h16.1v17.217H498.938V174.2h33.1a1.024,1.024,0,0,0,1.024-1.024V153.913A1.025,1.025,0,0,0,532.037,152.888Z" transform="translate(-498.938 -152.888)" fill="#06b3b9"/>
            </g>
            <g id="Group_1871" data-name="Group 1871">
              <path id="Path_839" data-name="Path 839" d="M489.524,169.687H445.617V141.023h30.526A1.024,1.024,0,0,0,477.168,140V127.017a1.025,1.025,0,0,0-2.049,0v11.959H444.594A1.024,1.024,0,0,0,443.57,140v30.713a1.023,1.023,0,0,0,1.024,1.024h44.93v-2.048Z" transform="translate(-443.57 -125.993)" fill="#06b3b9"/>
            </g>
          </g>
          <g id="Group_1874" data-name="Group 1874" transform="translate(44.329 45.359)">
            <g id="Group_1873" data-name="Group 1873">
              <path id="Path_840" data-name="Path 840" d="M514.065,175.533a1.024,1.024,0,0,1-1.025-1.024v-6.073a1.024,1.024,0,0,1,1.025-1.024h12.843a1.024,1.024,0,1,1,0,2.047h-11.82v5.048A1.024,1.024,0,0,1,514.065,175.533Z" transform="translate(-513.04 -167.413)" fill="#06b3b9"/>
            </g>
          </g>
          <g id="Group_1876" data-name="Group 1876" transform="translate(-12.349 0.337)">
            <g id="Group_1875" data-name="Group 1875">
              <path id="Path_841" data-name="Path 841" d="M464.674,128.27h-13.01a1.024,1.024,0,0,1-1.025-1.024V118.87a1.024,1.024,0,0,1,2.048,0v7.352h11.986a1.024,1.024,0,0,1,0,2.048Z" transform="translate(-450.64 -117.846)" fill="#06b3b9"/>
            </g>
          </g>
          <g id="Group_1892" data-name="Group 1892" transform="translate(22.667 -1.902)">
            <g id="Group_1877" data-name="Group 1877" transform="translate(0.728)">
              <path id="Path_842" data-name="Path 842" d="M490.9,117.652a.909.909,0,0,1-.908-.908v-.454a.908.908,0,0,1,1.817,0v.454A.908.908,0,0,1,490.9,117.652Z" transform="translate(-489.993 -115.381)" fill="#fff"/>
            </g>
            <g id="Group_1878" data-name="Group 1878" transform="translate(0.728 2.869)">
              <path id="Path_843" data-name="Path 843" d="M490.9,121.161a.909.909,0,0,1-.908-.908v-.8a.908.908,0,0,1,1.817,0v.8A.909.909,0,0,1,490.9,121.161Z" transform="translate(-489.993 -118.54)" fill="#fff"/>
            </g>
            <g id="Group_1879" data-name="Group 1879" transform="translate(0.728 6.087)">
              <path id="Path_844" data-name="Path 844" d="M491.355,124.354H490.9a.909.909,0,0,1-.908-.908v-.454a1.158,1.158,0,1,1,1.362,1.362Z" transform="translate(-489.993 -122.083)" fill="#fff"/>
            </g>
            <g id="Group_1880" data-name="Group 1880" transform="translate(3.946 6.542)">
              <path id="Path_845" data-name="Path 845" d="M506.418,124.4H505.5a.908.908,0,1,1,0-1.817h.921a.908.908,0,0,1,0,1.817Zm-3.684,0h-.921a.908.908,0,1,1,0-1.817h.921a.908.908,0,0,1,0,1.817Zm-3.685,0h-.921a.908.908,0,0,1,0-1.817h.921a.908.908,0,0,1,0,1.817Zm-3.685,0h-.921a.908.908,0,0,1,0-1.817h.921a.908.908,0,0,1,0,1.817Z" transform="translate(-493.535 -122.583)" fill="#fff"/>
            </g>
            <g id="Group_1881" data-name="Group 1881" transform="translate(18.685 6.542)">
              <path id="Path_846" data-name="Path 846" d="M511.124,124.854a1.158,1.158,0,1,1-.454-2.271h.454a.909.909,0,0,1,.908.908v.454A.908.908,0,0,1,511.124,124.854Z" transform="translate(-509.762 -122.583)" fill="#fff"/>
            </g>
            <g id="Group_1882" data-name="Group 1882" transform="translate(19.139 10.103)">
              <path id="Path_847" data-name="Path 847" d="M511.17,133.5a.909.909,0,0,1-.908-.908v-1.035a.908.908,0,1,1,1.817,0v1.035A.909.909,0,0,1,511.17,133.5Zm0-4.141a.909.909,0,0,1-.908-.908v-1.035a.908.908,0,1,1,1.817,0v1.035A.909.909,0,0,1,511.17,129.356Z" transform="translate(-510.262 -126.504)" fill="#fff"/>
            </g>
            <g id="Group_1883" data-name="Group 1883" transform="translate(18.685 18.386)">
              <path id="Path_848" data-name="Path 848" d="M511.124,137.894h-.454a1.158,1.158,0,1,1,1.362-1.362v.454A.909.909,0,0,1,511.124,137.894Z" transform="translate(-509.762 -135.623)" fill="#fff"/>
            </g>
            <g id="Group_1884" data-name="Group 1884" transform="translate(3.333 18.84)">
              <path id="Path_849" data-name="Path 849" d="M506.242,137.94h-.959a.908.908,0,0,1,0-1.817h.959a.908.908,0,0,1,0,1.817Zm-3.839,0h-.959a.908.908,0,0,1,0-1.817h.959a.908.908,0,1,1,0,1.817Zm-3.838,0h-.959a.908.908,0,1,1,0-1.817h.959a.908.908,0,0,1,0,1.817Zm-3.838,0h-.959a.908.908,0,0,1,0-1.817h.959a.908.908,0,0,1,0,1.817Z" transform="translate(-492.861 -136.123)" fill="#fff"/>
            </g>
            <g id="Group_1885" data-name="Group 1885" transform="translate(0 18.84)">
              <path id="Path_850" data-name="Path 850" d="M490.1,138.394a.909.909,0,0,1-.908-.908v-.454a.909.909,0,0,1,.908-.908h.454a1.237,1.237,0,0,1-.454,2.271Z" transform="translate(-489.191 -136.123)" fill="#fff"/>
            </g>
            <g id="Group_1886" data-name="Group 1886" transform="translate(0 22.039)">
              <path id="Path_851" data-name="Path 851" d="M490.1,153.354a.909.909,0,0,1-.908-.908v-.915a.908.908,0,0,1,1.817,0v.915A.908.908,0,0,1,490.1,153.354Zm0-3.66a.909.909,0,0,1-.908-.908v-.915a.908.908,0,1,1,1.817,0v.915A.908.908,0,0,1,490.1,149.694Zm0-3.659a.909.909,0,0,1-.908-.908v-.915a.908.908,0,0,1,1.817,0v.915A.908.908,0,0,1,490.1,146.036Zm0-3.66a.909.909,0,0,1-.908-.908v-.915a.908.908,0,1,1,1.817,0v.915A.908.908,0,0,1,490.1,142.376Z" transform="translate(-489.191 -139.645)" fill="#fff"/>
            </g>
            <g id="Group_1887" data-name="Group 1887" transform="translate(0 36.676)">
              <path id="Path_852" data-name="Path 852" d="M490.553,158.031H490.1a.909.909,0,0,1-.908-.908v-.454a1.158,1.158,0,1,1,1.362,1.362Z" transform="translate(-489.191 -155.76)" fill="#fff"/>
            </g>
            <g id="Group_1888" data-name="Group 1888" transform="translate(2.534 37.131)">
              <path id="Path_853" data-name="Path 853" d="M493.582,158.077h-.693a.908.908,0,1,1,0-1.817h.693a.908.908,0,0,1,0,1.817Z" transform="translate(-491.981 -156.26)" fill="#fff"/>
            </g>
            <g id="Group_1889" data-name="Group 1889" transform="translate(5.307 37.131)">
              <path id="Path_854" data-name="Path 854" d="M496.4,158.531a1.158,1.158,0,0,1-.454-2.271h.454a.909.909,0,0,1,.908.908v.454A.909.909,0,0,1,496.4,158.531Z" transform="translate(-495.034 -156.26)" fill="#fff"/>
            </g>
            <g id="Group_1890" data-name="Group 1890" transform="translate(5.761 40.328)">
              <path id="Path_855" data-name="Path 855" d="M496.442,173.485a.909.909,0,0,1-.908-.908v-.915a.908.908,0,1,1,1.817,0v.915A.909.909,0,0,1,496.442,173.485Zm0-3.658a.909.909,0,0,1-.908-.908V168a.908.908,0,0,1,1.817,0v.915A.909.909,0,0,1,496.442,169.828Zm0-3.659a.909.909,0,0,1-.908-.908v-.915a.908.908,0,1,1,1.817,0v.915A.908.908,0,0,1,496.442,166.169Zm0-3.658a.909.909,0,0,1-.908-.908v-.915a.908.908,0,1,1,1.817,0v.915A.909.909,0,0,1,496.442,162.511Z" transform="translate(-495.534 -159.78)" fill="#fff"/>
            </g>
            <g id="Group_1891" data-name="Group 1891" transform="translate(5.761 54.961)">
              <path id="Path_856" data-name="Path 856" d="M496.442,178.161a.909.909,0,0,1-.908-.908V176.8a.908.908,0,1,1,1.817,0v.454A.909.909,0,0,1,496.442,178.161Z" transform="translate(-495.534 -175.89)" fill="#fff"/>
            </g>
          </g>
        </g>
      </g>
    </g>
    <g id="Group_1908" data-name="Group 1908" transform="translate(220.95 166.454)">
      <g id="Group_1896" data-name="Group 1896" transform="translate(12 0)">
        <path id="Path_857" data-name="Path 857" d="M298.5,305.681H282.368a31.228,31.228,0,0,1-31.228-31.228v-63.76a39.294,39.294,0,0,1,39.3-39.294h0a39.3,39.3,0,0,1,39.3,39.294v63.76A31.228,31.228,0,0,1,298.5,305.681Z" transform="translate(-251.14 -171.399)" fill="#ff7443"/>
      </g>
      <g id="Group_1897" data-name="Group 1897" transform="translate(0 80.532)">
        <path id="Path_858" data-name="Path 858" d="M340.519,346.987V287.551a27.49,27.49,0,0,0-27.49-27.49H262.565A24.637,24.637,0,0,0,237.928,284.7v62.289H340.519Z" transform="translate(-237.928 -260.061)" fill="#1ed9de"/>
      </g>
      <g id="Group_1898" data-name="Group 1898" transform="translate(60.965 80.532)">
        <path id="Path_859" data-name="Path 859" d="M319.184,260.061H305.047a27.49,27.49,0,0,1,27.49,27.49v59.436h14.137V287.551A27.49,27.49,0,0,0,319.184,260.061Z" transform="translate(-305.047 -260.061)" fill="#06b3b9"/>
      </g>
      <g id="Group_1899" data-name="Group 1899" transform="translate(29.104 80.49)">
        <path id="Path_860" data-name="Path 860" d="M314.35,260.015l-21.845,35.9-22.535-35.9Z" transform="translate(-269.97 -260.015)" fill="#264463"/>
      </g>
      <g id="Group_1900" data-name="Group 1900" transform="translate(35.962 80.49)">
        <path id="Path_861" data-name="Path 861" d="M308.184,260.015v.227a15.332,15.332,0,1,1-30.664,0v-.227Z" transform="translate(-277.52 -260.015)" fill="#fff"/>
      </g>
      <g id="Group_1901" data-name="Group 1901" transform="translate(40.503 69.38)">
        <path id="Path_862" data-name="Path 862" d="M304.106,252.582v6.542a10.788,10.788,0,0,1-10.789,10.789h0a10.8,10.8,0,0,1-10.8-10.8v-6.542a4.791,4.791,0,0,1,4.791-4.791h11.994A4.8,4.8,0,0,1,304.106,252.582Z" transform="translate(-282.52 -247.783)" fill="#ffd55c"/>
      </g>
      <g id="Group_1902" data-name="Group 1902" transform="translate(40.502 69.381)" opacity="0.7">
        <path id="Path_863" data-name="Path 863" d="M304.106,252.575v2.569a26.99,26.99,0,0,1-10.55,2.136h-.487a26.989,26.989,0,0,1-10.55-2.136v-2.569a4.8,4.8,0,0,1,4.8-4.791h11.987A4.8,4.8,0,0,1,304.106,252.575Z" transform="translate(-282.519 -247.784)" fill="#ffd55c"/>
      </g>
      <g id="Group_1904" data-name="Group 1904" transform="translate(21.494 12.413)">
        <g id="Group_1903" data-name="Group 1903">
          <path id="Path_864" data-name="Path 864" d="M321.195,214.866v3.978a29.8,29.8,0,1,1-59.6,0v-3.978a29.7,29.7,0,0,1,8.729-21.073,30.168,30.168,0,0,1,3.815-3.224,29.8,29.8,0,0,1,47.059,24.3Z" transform="translate(-261.592 -185.065)" fill="#ffe082"/>
        </g>
      </g>
      <g id="Group_1905" data-name="Group 1905" transform="translate(34.036 12.413)">
        <path id="Path_865" data-name="Path 865" d="M322.459,214.866v2.879c-21.109-1.272-33.108-9.337-39.575-16.186a41,41,0,0,1-7.484-10.99,29.8,29.8,0,0,1,47.059,24.3Z" transform="translate(-275.4 -185.065)" fill="#ffd55c"/>
      </g>
      <g id="Group_1906" data-name="Group 1906" transform="translate(35.47 8.047)">
        <path id="Path_866" data-name="Path 866" d="M276.979,183.4s6,30.447,51.534,30.447C328.514,213.85,325.7,168.059,276.979,183.4Z" transform="translate(-276.979 -180.258)" fill="#ff7443"/>
      </g>
      <g id="Group_1907" data-name="Group 1907" transform="translate(37.159 57.893)">
        <path id="Path_867" data-name="Path 867" d="M307.112,235.136a15,15,0,0,1-28.274,0Z" transform="translate(-278.838 -235.136)" fill="#fff"/>
      </g>
    </g>
    <g id="Group_1923" data-name="Group 1923" transform="translate(407.33 159.804)">
      <g id="Group_1909" data-name="Group 1909" transform="translate(0 87.514)">
        <path id="Path_868" data-name="Path 868" d="M551.165,347.352V297.36c0-22.371-15.779-36.934-38.158-36.934H477.2c-22.379,0-34.081,14.563-34.081,36.934v49.992Z" transform="translate(-443.123 -260.426)" fill="#50667e"/>
      </g>
      <g id="Group_1910" data-name="Group 1910" transform="translate(53.584 87.514)">
        <path id="Path_869" data-name="Path 869" d="M518.417,260.426h-16.3c22.379,0,38.158,14.563,38.158,36.934v49.992h16.3V297.359C556.574,274.989,540.8,260.426,518.417,260.426Z" transform="translate(-502.116 -260.426)" fill="#264463"/>
      </g>
      <g id="Group_1911" data-name="Group 1911" transform="translate(37.72 98.889)">
        <path id="Path_870" data-name="Path 870" d="M484.651,272.949,501.2,304.06l16.051-31.111Z" transform="translate(-484.651 -272.949)" fill="#ff7443"/>
      </g>
      <g id="Group_1913" data-name="Group 1913" transform="translate(34.803 77.724)">
        <g id="Group_1912" data-name="Group 1912">
          <path id="Path_871" data-name="Path 871" d="M500.642,275.376s-12.339,12.982-16,10.117c-2.9-2.273-3.2-16.642-3.2-16.642a19.2,19.2,0,0,1,38.407,0s-.3,14.368-3.2,16.642C512.982,288.358,500.642,275.376,500.642,275.376Z" transform="translate(-481.44 -249.647)" fill="#fff"/>
        </g>
      </g>
      <g id="Group_1916" data-name="Group 1916" transform="translate(42.164 69.612)">
        <g id="Group_1915" data-name="Group 1915">
          <g id="Group_1914" data-name="Group 1914">
            <path id="Path_872" data-name="Path 872" d="M513.227,245.971v12.158a11.842,11.842,0,1,1-23.684,0V245.971a5.257,5.257,0,0,1,5.265-5.255h13.155A5.257,5.257,0,0,1,513.227,245.971Z" transform="translate(-489.543 -240.716)" fill="#ffd55c"/>
          </g>
        </g>
      </g>
      <g id="Group_1917" data-name="Group 1917" transform="translate(20.317 6.227)">
        <path id="Path_873" data-name="Path 873" d="M507.715,233.729a25.184,25.184,0,0,0,25.155-25.156V196.088a25.183,25.183,0,0,0-25.155-25.155h-17.07a25.183,25.183,0,0,0-25.155,25.155v12.485a25.185,25.185,0,0,0,25.155,25.156Z" transform="translate(-465.491 -170.933)" fill="#fff"/>
      </g>
      <g id="Group_1918" data-name="Group 1918" transform="translate(42.163 69.612)" opacity="0.7">
        <path id="Path_874" data-name="Path 874" d="M513.227,245.971v7.4a30.261,30.261,0,0,1-11.577,2.291h-.53a30.244,30.244,0,0,1-11.577-2.291v-7.4a5.257,5.257,0,0,1,5.265-5.255h13.155A5.257,5.257,0,0,1,513.227,245.971Z" transform="translate(-489.543 -240.716)" fill="#ffd55c"/>
      </g>
      <g id="Group_1919" data-name="Group 1919" transform="translate(27.42 6.669)">
        <path id="Path_875" data-name="Path 875" d="M473.311,218.915a26.322,26.322,0,0,0,26.322,26.321h.531a26.321,26.321,0,0,0,26.321-26.321V197.74a26.321,26.321,0,0,0-26.321-26.321h-.531a26.321,26.321,0,0,0-26.322,26.321v21.175Z" transform="translate(-473.311 -171.419)" fill="#ffe082"/>
      </g>
      <g id="Group_1920" data-name="Group 1920" transform="translate(38.858 60.102)">
        <path id="Path_876" data-name="Path 876" d="M485.9,230.246a16.071,16.071,0,0,0,30.3,0Z" transform="translate(-485.904 -230.246)" fill="#fff"/>
      </g>
      <g id="Group_1922" data-name="Group 1922" transform="translate(20.316 0)">
        <g id="Group_1921" data-name="Group 1921">
          <path id="Path_877" data-name="Path 877" d="M527.344,193.657H465.49c0-19.939,17.935-29.58,38.428-29.58h39.2v13.805A15.775,15.775,0,0,1,527.344,193.657Z" transform="translate(-465.49 -164.077)" fill="#fff"/>
        </g>
      </g>
    </g>
    <g id="Group_1936" data-name="Group 1936" transform="translate(309.815 154.287)">
      <g id="Group_1924" data-name="Group 1924" transform="translate(0 92.43)">
        <path id="Path_878" data-name="Path 878" d="M452.456,353.649v-54c0-24.162-17.043-39.89-41.213-39.89h-38.67c-24.17,0-36.808,15.728-36.808,39.89v54Z" transform="translate(-335.764 -259.764)" fill="#ff7443"/>
      </g>
      <g id="Group_1925" data-name="Group 1925" transform="translate(57.71 92.43)">
        <path id="Path_879" data-name="Path 879" d="M417.068,259.764H399.3c24.17,0,41.212,15.728,41.212,39.89v54h17.769v-54C458.281,275.492,441.239,259.764,417.068,259.764Z" transform="translate(-399.3 -259.764)" fill="#e8441e"/>
      </g>
      <g id="Group_1926" data-name="Group 1926" transform="translate(20.783)">
        <path id="Path_880" data-name="Path 880" d="M395.927,232.917a37.323,37.323,0,0,1-37.282-37.282v-.35A37.324,37.324,0,0,1,395.927,158h.561a37.324,37.324,0,0,1,37.281,37.282v.35a37.323,37.323,0,0,1-37.281,37.282Z" transform="translate(-358.645 -158.003)" fill="#50667e"/>
      </g>
      <g id="Group_1932" data-name="Group 1932" transform="translate(39.707 79.983)">
        <g id="Group_1927" data-name="Group 1927" transform="translate(0.871 25.605)">
          <path id="Path_881" data-name="Path 881" d="M380.438,274.25,398.48,303l17.5-28.747Z" transform="translate(-380.438 -274.25)" fill="#264463"/>
        </g>
        <g id="Group_1928" data-name="Group 1928" transform="translate(0 3.678)">
          <path id="Path_882" data-name="Path 882" d="M398.118,275.083s11.977,12.6,15.528,9.82c2.818-2.207,3.111-16.154,3.111-16.154a18.639,18.639,0,1,0-37.279,0s.292,13.947,3.11,16.154C386.141,287.685,398.118,275.083,398.118,275.083Z" transform="translate(-379.479 -250.109)" fill="#fff"/>
        </g>
        <g id="Group_1930" data-name="Group 1930" transform="translate(6.159 0)">
          <g id="Group_1929" data-name="Group 1929">
            <path id="Path_883" data-name="Path 883" d="M411.22,251.6v12.407a5.547,5.547,0,0,1-5.55,5.541H391.81a5.547,5.547,0,0,1-5.55-5.541V251.6a5.547,5.547,0,0,1,5.55-5.541h13.861A5.547,5.547,0,0,1,411.22,251.6Z" transform="translate(-386.26 -246.06)" fill="#ffd55c"/>
          </g>
        </g>
        <g id="Group_1931" data-name="Group 1931" transform="translate(6.159)" opacity="0.7">
          <path id="Path_884" data-name="Path 884" d="M411.22,251.6v2.97a31.2,31.2,0,0,1-12.2,2.471h-.563a31.2,31.2,0,0,1-12.2-2.471V251.6a5.547,5.547,0,0,1,5.55-5.541h13.861A5.547,5.547,0,0,1,411.22,251.6Z" transform="translate(-386.26 -246.06)" fill="#ffd55c"/>
        </g>
      </g>
      <g id="Group_1933" data-name="Group 1933" transform="translate(30.331 9.549)">
        <path id="Path_885" data-name="Path 885" d="M425.186,218.563A27.734,27.734,0,0,1,397.452,246.3h-.56a27.734,27.734,0,0,1-27.734-27.734V196.25a27.734,27.734,0,0,1,27.734-27.734h.56a27.734,27.734,0,0,1,27.734,27.734Z" transform="translate(-369.157 -168.516)" fill="#ffe082"/>
      </g>
      <g id="Group_1934" data-name="Group 1934" transform="translate(42.384 65.85)">
        <path id="Path_886" data-name="Path 886" d="M414.349,230.5a16.933,16.933,0,0,1-31.922,0Z" transform="translate(-382.427 -230.501)" fill="#fff"/>
      </g>
      <g id="Group_1935" data-name="Group 1935" transform="translate(29.526 8.677)">
        <path id="Path_887" data-name="Path 887" d="M418.729,176.571a12.3,12.3,0,0,1,.349,2.908c0,10.11-12.46,18.307-27.83,18.307-9.563,0-17.984-3.165-22.977-7.995v-5.571l7.84-8.762,8.662-5.7s14.715-3.027,19.6-1.989C408.542,168.661,418.729,176.571,418.729,176.571Z" transform="translate(-368.271 -167.556)" fill="#50667e"/>
      </g>
    </g>
    <g id="Group_1949" data-name="Group 1949" transform="translate(561.495 281.699)">
      <g id="Group_1938" data-name="Group 1938">
        <g id="Group_1937" data-name="Group 1937">
          <path id="Path_888" data-name="Path 888" d="M657.877,320.926a22.713,22.713,0,0,0-24.312-22.593c-11.784.806-20.854,11.083-20.712,22.894a21.89,21.89,0,0,0,11.583,19.423,7.9,7.9,0,0,1,4.1,6.991v.054h14.147v-.054a8.419,8.419,0,0,1,3.994-7.2A23.142,23.142,0,0,0,657.877,320.926Z" transform="translate(-612.851 -298.278)" fill="#fed65c"/>
        </g>
      </g>
      <g id="Group_1940" data-name="Group 1940" transform="translate(0.001)">
        <g id="Group_1939" data-name="Group 1939">
          <path id="Path_889" data-name="Path 889" d="M633.565,298.332a21.472,21.472,0,0,0-4.491.8c.356-.024.712-.04,1.073-.04a16.384,16.384,0,1,1-16.383,16.384c0-.32.012-.636.03-.951a22.723,22.723,0,0,0-.94,6.7,21.89,21.89,0,0,0,11.583,19.423,7.9,7.9,0,0,1,4.1,6.991v.054h14.147v-.054a8.419,8.419,0,0,1,3.994-7.2,23.14,23.14,0,0,0,11.2-19.512A22.713,22.713,0,0,0,633.565,298.332Z" transform="translate(-612.852 -298.278)" fill="#ffb734"/>
        </g>
      </g>
      <g id="Group_1942" data-name="Group 1942" transform="translate(20.643 28.623)">
        <g id="Group_1941" data-name="Group 1941">
          <path id="Path_890" data-name="Path 890" d="M637.448,352.452a1.87,1.87,0,0,1-1.87-1.87V331.661a1.871,1.871,0,0,1,3.741,0v18.922A1.871,1.871,0,0,1,637.448,352.452Z" transform="translate(-635.578 -329.791)" fill="#2a445d"/>
        </g>
      </g>
      <g id="Group_1944" data-name="Group 1944" transform="translate(4.347 21.679)">
        <g id="Group_1943" data-name="Group 1943">
          <path id="Path_891" data-name="Path 891" d="M620.574,329.625a2.5,2.5,0,0,1-2.4-1.807,14.406,14.406,0,0,1-.535-3.015,2.494,2.494,0,0,1,4.977-.327,9.432,9.432,0,0,0,.353,1.968,2.5,2.5,0,0,1-2.4,3.181Z" transform="translate(-617.637 -322.145)" fill="#fff"/>
        </g>
      </g>
      <g id="Group_1946" data-name="Group 1946" transform="translate(5.18 8.586)">
        <g id="Group_1945" data-name="Group 1945">
          <path id="Path_892" data-name="Path 892" d="M621.047,318.675a2.494,2.494,0,0,1-2.318-3.411,16.684,16.684,0,0,1,5.342-7.084,2.494,2.494,0,0,1,2.869,4.079,11.811,11.811,0,0,0-3.574,4.839A2.493,2.493,0,0,1,621.047,318.675Z" transform="translate(-618.554 -307.731)" fill="#fff"/>
        </g>
      </g>
      <g id="Group_1948" data-name="Group 1948" transform="translate(13.94 48.895)">
        <g id="Group_1947" data-name="Group 1947">
          <path id="Path_893" data-name="Path 893" d="M643.987,361.99H630.046a1.848,1.848,0,0,1-1.848-1.848v-6.185a1.848,1.848,0,0,1,1.848-1.848h13.941a1.848,1.848,0,0,1,1.848,1.848v6.185A1.848,1.848,0,0,1,643.987,361.99Z" transform="translate(-628.198 -352.109)" fill="#fff"/>
        </g>
      </g>
    </g>
    <g id="XMLID_88_" transform="translate(511.742 150.879)">
      <g id="XMLID_92_" transform="translate(0.803 6.33)">
        <path id="Path_894" data-name="Path 894" d="M574.458,177.54l-15.5-5.045a16.043,16.043,0,0,1,15.5-11.276Z" transform="translate(-558.96 -161.22)" fill="#ff7443"/>
      </g>
      <g id="XMLID_91_" transform="translate(0 17.606)">
        <path id="Path_895" data-name="Path 895" d="M574.376,178.679l15.5,5.04a16.3,16.3,0,1,1-31-10.085h0Z" transform="translate(-558.076 -173.634)" fill="#50667e"/>
      </g>
      <g id="XMLID_90_" transform="translate(16.301 9.448)">
        <path id="Path_896" data-name="Path 896" d="M576.022,177.855l9.583-13.2a16.076,16.076,0,0,1,5.919,18.242Z" transform="translate(-576.022 -164.653)" fill="#ffd55c"/>
      </g>
      <g id="XMLID_89_" transform="translate(18.402 0)">
        <path id="Path_897" data-name="Path 897" d="M578.335,170.571v-16.32a15.621,15.621,0,0,1,9.583,3.118Z" transform="translate(-578.335 -154.251)" fill="#fff"/>
      </g>
    </g>
    <g id="Group_1965" data-name="Group 1965" transform="translate(573.613 164.8)">
      <g id="Group_1950" data-name="Group 1950" transform="translate(47.41 47.903)">
        <path id="Path_898" data-name="Path 898" d="M697.583,247.985a4.313,4.313,0,0,0,6.1.063h0a4.312,4.312,0,0,0,.062-6.1l-17.964-18.339a4.31,4.31,0,0,0-6.1-.063h0a4.311,4.311,0,0,0-.062,6.1Z" transform="translate(-678.389 -222.317)" fill="#50667e"/>
      </g>
      <g id="Group_1951" data-name="Group 1951" transform="translate(41.231 41.677)">
        <rect id="Rectangle_447" data-name="Rectangle 447" width="8.77" height="11.402" transform="translate(14.244 8.146) rotate(135.591)" fill="#cbe1ef"/>
      </g>
      <path id="Path_899" data-name="Path 899" d="M672.761,179.793a25.706,25.706,0,1,0-.375,36.352A25.706,25.706,0,0,0,672.761,179.793Zm-4.513,32.129a19.794,19.794,0,1,1,.288-27.99A19.816,19.816,0,0,1,668.248,211.921Z" transform="translate(-626.422 -169.807)" fill="#ff7443"/>
      <g id="Group_1953" data-name="Group 1953">
        <g id="Group_1952" data-name="Group 1952">
          <path id="Path_900" data-name="Path 900" d="M654.17,225.528l-.322,0a.454.454,0,0,1,.006-.908h.006l.309,0c.78,0,1.57-.035,2.343-.1a.454.454,0,0,1,.078.9C655.791,225.492,654.976,225.528,654.17,225.528Zm-3.009-.164-.051,0c-.906-.1-1.818-.244-2.709-.431a.454.454,0,1,1,.186-.889c.863.181,1.746.322,2.623.417a.455.455,0,0,1-.049.906Zm8.067-.3a.454.454,0,0,1-.083-.9c.866-.161,1.735-.368,2.584-.613a.454.454,0,1,1,.252.873c-.877.253-1.774.467-2.669.634A.539.539,0,0,1,659.227,225.062Zm-13.347-.806a.439.439,0,0,1-.136-.021c-.87-.274-1.737-.595-2.574-.952a.454.454,0,0,1,.356-.836c.811.346,1.648.656,2.491.921a.454.454,0,0,1-.136.887Zm18.528-.7a.454.454,0,0,1-.169-.876c.818-.328,1.63-.7,2.412-1.107a.454.454,0,1,1,.419.8c-.808.421-1.647.806-2.494,1.145A.439.439,0,0,1,664.408,223.559Zm-23.487-1.421a.454.454,0,0,1-.219-.056c-.8-.439-1.584-.923-2.337-1.439a.454.454,0,0,1,.514-.749c.728.5,1.489.968,2.261,1.392a.454.454,0,0,1-.219.852Zm28.271-1.067a.454.454,0,0,1-.248-.835c.736-.48,1.458-1,2.148-1.56a.455.455,0,0,1,.57.708c-.713.573-1.461,1.115-2.221,1.611A.447.447,0,0,1,669.192,221.071Zm-32.719-1.984a.455.455,0,0,1-.292-.106c-.689-.58-1.362-1.2-2-1.852l.647-.638-.336.305.338-.3c.616.629,1.266,1.232,1.934,1.793a.456.456,0,0,1,.055.64A.461.461,0,0,1,636.473,219.087Zm37.271-1.55-.346-.3-.3-.342c.634-.621,1.233-1.267,1.79-1.929a.455.455,0,0,1,.7.586C675.007,216.239,674.389,216.906,673.744,217.537ZM632.7,215.231a.454.454,0,0,1-.354-.17c-.57-.708-1.114-1.456-1.612-2.22a.454.454,0,1,1,.759-.5c.484.739,1.009,1.461,1.561,2.147a.455.455,0,0,1-.354.739Zm44.171-1.662a.449.449,0,0,1-.257-.08.454.454,0,0,1-.117-.631c.5-.728.969-1.49,1.393-2.26a.455.455,0,0,1,.8.438c-.439.8-.924,1.583-1.441,2.336A.451.451,0,0,1,676.872,213.569Zm-47.122-2.851a.453.453,0,0,1-.4-.244c-.422-.811-.808-1.65-1.146-2.494a.454.454,0,1,1,.842-.338c.327.816.7,1.628,1.109,2.412a.453.453,0,0,1-.193.612A.437.437,0,0,1,629.75,210.718Zm49.723-1.873a.441.441,0,0,1-.178-.037.454.454,0,0,1-.24-.6c.349-.814.659-1.65.924-2.49a.454.454,0,1,1,.866.272c-.273.867-.594,1.733-.954,2.573A.456.456,0,0,1,679.473,208.845Zm-51.732-3.132a.454.454,0,0,1-.436-.327c-.253-.875-.468-1.773-.635-2.669a.454.454,0,1,1,.892-.166c.163.868.369,1.738.616,2.583a.455.455,0,0,1-.31.563A.56.56,0,0,1,627.742,205.713ZM681.1,203.7a.423.423,0,0,1-.094-.01.455.455,0,0,1-.352-.538c.181-.86.322-1.742.42-2.623a.454.454,0,1,1,.9.1c-.1.909-.247,1.82-.434,2.709A.452.452,0,0,1,681.1,203.7Zm-54.348-3.29A.453.453,0,0,1,626.3,200c-.071-.806-.106-1.628-.106-2.442l0-.3a.455.455,0,0,1,.454-.451h0a.454.454,0,0,1,.45.458l0,.291c0,.789.035,1.584.1,2.364a.455.455,0,0,1-.412.492Zm54.937-2.071h-.007a.454.454,0,0,1-.447-.461l0-.324c0-.776-.034-1.558-.1-2.327a.454.454,0,0,1,.9-.078c.068.795.1,1.6.1,2.4l0,.342A.455.455,0,0,1,681.688,198.34Zm-54.878-3.323-.05,0a.454.454,0,0,1-.4-.5c.1-.9.243-1.817.43-2.711a.454.454,0,0,1,.889.186c-.181.866-.321,1.748-.415,2.622A.455.455,0,0,1,626.81,195.018Zm54.416-2.051a.454.454,0,0,1-.445-.371c-.162-.865-.367-1.735-.612-2.584a.454.454,0,1,1,.873-.252c.253.878.466,1.777.631,2.67a.454.454,0,0,1-.362.53A.53.53,0,0,1,681.225,192.967Zm-53.313-3.228a.439.439,0,0,1-.136-.021.453.453,0,0,1-.3-.57c.275-.872.594-1.738.95-2.574a.454.454,0,1,1,.836.356c-.344.808-.654,1.647-.92,2.491A.454.454,0,0,1,627.912,189.739Zm51.816-1.953a.454.454,0,0,1-.421-.285c-.328-.82-.7-1.633-1.105-2.414a.454.454,0,0,1,.806-.419c.42.807.8,1.647,1.143,2.5a.453.453,0,0,1-.253.59A.484.484,0,0,1,679.729,187.786Zm-49.7-3.008a.448.448,0,0,1-.218-.056.454.454,0,0,1-.18-.617c.439-.8.924-1.589,1.438-2.339a.454.454,0,1,1,.748.513c-.5.726-.966,1.487-1.39,2.262A.454.454,0,0,1,630.027,184.778ZM677.243,183a.454.454,0,0,1-.381-.206c-.481-.738-1-1.461-1.558-2.15a.454.454,0,1,1,.708-.569c.571.712,1.114,1.46,1.61,2.223a.454.454,0,0,1-.133.629A.446.446,0,0,1,677.243,183Zm-44.169-2.672a.454.454,0,0,1-.348-.746c.582-.693,1.209-1.371,1.866-2.013l.375.268.263.378c-.638.625-1.245,1.281-1.808,1.951A.453.453,0,0,1,633.074,180.327Zm40.469-1.673.326-.316-.363.278c-.609-.62-1.248-1.214-1.906-1.77a.454.454,0,1,1,.585-.694c.679.573,1.341,1.187,1.966,1.825l-.282.362ZM636.99,176.5a.455.455,0,0,1-.284-.809c.713-.571,1.461-1.113,2.224-1.609a.454.454,0,1,1,.495.76c-.738.48-1.461,1-2.151,1.556A.435.435,0,0,1,636.99,176.5Zm32.758-1.188a.445.445,0,0,1-.257-.08c-.728-.5-1.488-.97-2.259-1.4a.454.454,0,0,1,.439-.8c.8.44,1.583.925,2.335,1.442a.455.455,0,0,1,.117.632A.46.46,0,0,1,669.748,175.314Zm-28.237-1.753a.454.454,0,0,1-.209-.857c.808-.419,1.648-.8,2.5-1.141a.454.454,0,1,1,.337.843c-.821.327-1.633.7-2.414,1.1A.451.451,0,0,1,641.511,173.561Zm23.513-.851a.446.446,0,0,1-.179-.037c-.813-.348-1.649-.659-2.488-.925a.454.454,0,0,1,.273-.866c.867.274,1.733.6,2.573.956a.454.454,0,0,1-.18.872Zm-18.5-1.145a.454.454,0,0,1-.125-.891c.877-.253,1.776-.464,2.671-.629a.454.454,0,0,1,.165.894c-.867.16-1.737.365-2.585.609A.508.508,0,0,1,646.519,171.564Zm13.364-.482a.418.418,0,0,1-.094-.01c-.862-.183-1.745-.323-2.622-.421a.454.454,0,0,1-.4-.5.448.448,0,0,1,.5-.4c.906.1,1.818.247,2.709.435a.455.455,0,0,1-.094.9Zm-8.06-.5a.454.454,0,0,1-.037-.906c.79-.067,1.591-.1,2.381-.1l.361,0a.454.454,0,0,1-.005.908h-.005l-.351,0c-.764,0-1.539.033-2.3.1Z" transform="translate(-626.193 -169.578)" fill="#fff"/>
        </g>
      </g>
      <g id="Group_1956" data-name="Group 1956" transform="translate(6.272 5.267)">
        <g id="Group_1954" data-name="Group 1954" transform="translate(0 1.79)">
          <path id="Path_901" data-name="Path 901" d="M643.745,214.686a19.793,19.793,0,0,1,20.193-33.975,19.793,19.793,0,1,0-20.193,33.975Z" transform="translate(-633.099 -177.348)" fill="#e8441e"/>
        </g>
        <g id="Group_1955" data-name="Group 1955" transform="translate(7.728)">
          <path id="Path_902" data-name="Path 902" d="M673.945,180.1a25.666,25.666,0,0,0-6.307-4.719,25.707,25.707,0,0,1-26.031,44.282A25.706,25.706,0,0,0,673.945,180.1Z" transform="translate(-641.607 -175.377)" fill="#e8441e"/>
        </g>
      </g>
      <g id="Group_1964" data-name="Group 1964" transform="translate(11.073 11.073)">
        <g id="Group_1958" data-name="Group 1958">
          <g id="Group_1957" data-name="Group 1957">
            <path id="Path_903" data-name="Path 903" d="M655.737,215.566a16.9,16.9,0,1,0-17.347-16.445A16.9,16.9,0,0,0,655.737,215.566Z" transform="translate(-638.384 -181.769)" fill="#feb834" fill-rule="evenodd"/>
          </g>
        </g>
        <g id="Group_1960" data-name="Group 1960" transform="translate(5.042 5.032)" opacity="0.6">
          <g id="Group_1959" data-name="Group 1959">
            <circle id="Ellipse_101" data-name="Ellipse 101" cx="11.869" cy="11.869" r="11.869" fill="#feb834"/>
          </g>
        </g>
        <g id="Group_1961" data-name="Group 1961" transform="translate(11.897 8.371)">
          <path id="Path_904" data-name="Path 904" d="M656.061,200.862c2.109.577,2.57.891,2.593,1.77s-1.4,1.166-2.239,1.189a4.722,4.722,0,0,1-2.337-.556.489.489,0,0,0-.672.164l-1.015,1.67a.484.484,0,0,0,.164.672,7.261,7.261,0,0,0,2.906.939l.027,1.011a.49.49,0,0,0,.5.477l1.956-.052a.49.49,0,0,0,.475-.5l-.032-1.173a3.986,3.986,0,0,0,3.2-3.916c-.086-3.244-2.893-4.013-4.751-4.522-2-.548-2.4-.809-2.416-1.556-.022-.827,1.333-1.083,2.139-1.1a3.979,3.979,0,0,1,2.732,1.011.487.487,0,0,0,.343.144.493.493,0,0,0,.349-.144L661.366,195a.488.488,0,0,0,0-.692,6.637,6.637,0,0,0-3.35-1.732l-.029-1.116a.489.489,0,0,0-.5-.476l-1.956.053a.489.489,0,0,0-.475.5l.028,1.063c-2.253.484-3.651,2-3.6,3.943C651.542,199.623,654.261,200.369,656.061,200.862Z" transform="translate(-651.482 -190.985)" fill="#fff" fill-rule="evenodd"/>
        </g>
        <g id="Group_1963" data-name="Group 1963" transform="translate(16.456 0)" opacity="0.6">
          <g id="Group_1962" data-name="Group 1962">
            <path id="Path_905" data-name="Path 905" d="M656.5,181.775l.9,33.79a16.9,16.9,0,0,0-.9-33.79Z" transform="translate(-656.502 -181.769)" fill="#feb834" fill-rule="evenodd"/>
          </g>
        </g>
      </g>
    </g>
    <g id="Group_2050" data-name="Group 2050" transform="translate(205.888 294.923)">
      <g id="Group_1969" data-name="Group 1969">
        <g id="Group_1968" data-name="Group 1968">
          <g id="Group_1967" data-name="Group 1967">
            <g id="Group_1966" data-name="Group 1966">
              <path id="Path_906" data-name="Path 906" d="M262.847,354.1a4.051,4.051,0,0,1-4.05,4.051H225.4a4.05,4.05,0,0,1-4.05-4.051V316.887a4.05,4.05,0,0,1,4.05-4.05h33.4a4.05,4.05,0,0,1,4.05,4.05Z" transform="translate(-221.345 -312.837)" fill="#50667e"/>
            </g>
          </g>
        </g>
      </g>
      <g id="Group_1973" data-name="Group 1973" transform="translate(3.53 2.776)">
        <g id="Group_1972" data-name="Group 1972">
          <g id="Group_1971" data-name="Group 1971">
            <g id="Group_1970" data-name="Group 1970">
              <path id="Path_907" data-name="Path 907" d="M258.45,324.255h-32a1.222,1.222,0,0,1-1.223-1.223v-5.917a1.222,1.222,0,0,1,1.223-1.223h32a1.222,1.222,0,0,1,1.223,1.223v5.917A1.222,1.222,0,0,1,258.45,324.255Z" transform="translate(-225.231 -315.893)" fill="#cbe1ef"/>
            </g>
          </g>
        </g>
      </g>
      <g id="Group_1977" data-name="Group 1977" transform="translate(3.53 4.466)">
        <g id="Group_1976" data-name="Group 1976">
          <g id="Group_1975" data-name="Group 1975">
            <g id="Group_1974" data-name="Group 1974">
              <path id="Path_908" data-name="Path 908" d="M258.45,326.116h-32a1.222,1.222,0,0,1-1.223-1.223v-5.917a1.223,1.223,0,0,1,1.223-1.223h32a1.222,1.222,0,0,1,1.223,1.223v5.917A1.222,1.222,0,0,1,258.45,326.116Z" transform="translate(-225.231 -317.754)" fill="#f1f8fe"/>
            </g>
          </g>
        </g>
      </g>
      <g id="Group_1981" data-name="Group 1981" transform="translate(3.415 16.119)">
        <g id="Group_1980" data-name="Group 1980">
          <g id="Group_1979" data-name="Group 1979">
            <g id="Group_1978" data-name="Group 1978">
              <path id="Path_909" data-name="Path 909" d="M229.191,335.762H226.2a1.094,1.094,0,0,1-1.094-1.094v-2.992a1.094,1.094,0,0,1,1.094-1.094h2.993a1.094,1.094,0,0,1,1.094,1.094v2.992A1.094,1.094,0,0,1,229.191,335.762Z" transform="translate(-225.105 -330.583)" fill="#2a445d"/>
            </g>
          </g>
        </g>
      </g>
      <g id="Group_1985" data-name="Group 1985" transform="translate(3.415 22.53)">
        <g id="Group_1984" data-name="Group 1984">
          <g id="Group_1983" data-name="Group 1983">
            <g id="Group_1982" data-name="Group 1982">
              <path id="Path_910" data-name="Path 910" d="M229.191,342.82H226.2a1.094,1.094,0,0,1-1.094-1.094v-2.992a1.094,1.094,0,0,1,1.094-1.094h2.993a1.094,1.094,0,0,1,1.094,1.094v2.992A1.094,1.094,0,0,1,229.191,342.82Z" transform="translate(-225.105 -337.641)" fill="#2a445d"/>
            </g>
          </g>
        </g>
      </g>
      <g id="Group_1989" data-name="Group 1989" transform="translate(3.415 29.435)">
        <g id="Group_1988" data-name="Group 1988">
          <g id="Group_1987" data-name="Group 1987">
            <g id="Group_1986" data-name="Group 1986">
              <path id="Path_911" data-name="Path 911" d="M229.191,350.423H226.2a1.094,1.094,0,0,1-1.094-1.094v-2.992a1.094,1.094,0,0,1,1.094-1.094h2.993a1.094,1.094,0,0,1,1.094,1.094v2.992A1.094,1.094,0,0,1,229.191,350.423Z" transform="translate(-225.105 -345.244)" fill="#2a445d"/>
            </g>
          </g>
        </g>
      </g>
      <g id="Group_1993" data-name="Group 1993" transform="translate(9.826 16.119)">
        <g id="Group_1992" data-name="Group 1992">
          <g id="Group_1991" data-name="Group 1991">
            <g id="Group_1990" data-name="Group 1990">
              <path id="Path_912" data-name="Path 912" d="M236.249,335.762h-2.992a1.094,1.094,0,0,1-1.094-1.094v-2.992a1.094,1.094,0,0,1,1.094-1.094h2.992a1.094,1.094,0,0,1,1.094,1.094v2.992A1.1,1.1,0,0,1,236.249,335.762Z" transform="translate(-232.163 -330.583)" fill="#2a445d"/>
            </g>
          </g>
        </g>
      </g>
      <g id="Group_1997" data-name="Group 1997" transform="translate(9.826 22.53)">
        <g id="Group_1996" data-name="Group 1996">
          <g id="Group_1995" data-name="Group 1995">
            <g id="Group_1994" data-name="Group 1994">
              <path id="Path_913" data-name="Path 913" d="M236.249,342.82h-2.992a1.094,1.094,0,0,1-1.094-1.094v-2.992a1.094,1.094,0,0,1,1.094-1.094h2.992a1.094,1.094,0,0,1,1.094,1.094v2.992A1.1,1.1,0,0,1,236.249,342.82Z" transform="translate(-232.163 -337.641)" fill="#2a445d"/>
            </g>
          </g>
        </g>
      </g>
      <g id="Group_2001" data-name="Group 2001" transform="translate(9.826 29.435)">
        <g id="Group_2000" data-name="Group 2000">
          <g id="Group_1999" data-name="Group 1999">
            <g id="Group_1998" data-name="Group 1998">
              <path id="Path_914" data-name="Path 914" d="M236.249,350.423h-2.992a1.094,1.094,0,0,1-1.094-1.094v-2.992a1.094,1.094,0,0,1,1.094-1.094h2.992a1.094,1.094,0,0,1,1.094,1.094v2.992A1.1,1.1,0,0,1,236.249,350.423Z" transform="translate(-232.163 -345.244)" fill="#2a445d"/>
            </g>
          </g>
        </g>
      </g>
      <g id="Group_2005" data-name="Group 2005" transform="translate(16.04 16.119)">
        <g id="Group_2004" data-name="Group 2004">
          <g id="Group_2003" data-name="Group 2003">
            <g id="Group_2002" data-name="Group 2002">
              <path id="Path_915" data-name="Path 915" d="M243.09,335.762H240.1A1.094,1.094,0,0,1,239,334.669v-2.992a1.094,1.094,0,0,1,1.094-1.094h2.993a1.094,1.094,0,0,1,1.094,1.094v2.992A1.094,1.094,0,0,1,243.09,335.762Z" transform="translate(-239.004 -330.583)" fill="#2a445d"/>
            </g>
          </g>
        </g>
      </g>
      <g id="Group_2009" data-name="Group 2009" transform="translate(16.04 22.53)">
        <g id="Group_2008" data-name="Group 2008">
          <g id="Group_2007" data-name="Group 2007">
            <g id="Group_2006" data-name="Group 2006">
              <path id="Path_916" data-name="Path 916" d="M243.09,342.82H240.1A1.094,1.094,0,0,1,239,341.727v-2.992a1.094,1.094,0,0,1,1.094-1.094h2.993a1.094,1.094,0,0,1,1.094,1.094v2.992A1.094,1.094,0,0,1,243.09,342.82Z" transform="translate(-239.004 -337.641)" fill="#2a445d"/>
            </g>
          </g>
        </g>
      </g>
      <g id="Group_2013" data-name="Group 2013" transform="translate(25.89 22.53)">
        <g id="Group_2012" data-name="Group 2012">
          <g id="Group_2011" data-name="Group 2011">
            <g id="Group_2010" data-name="Group 2010">
              <path id="Path_917" data-name="Path 917" d="M253.935,342.82h-2.992a1.094,1.094,0,0,1-1.094-1.094v-2.992a1.094,1.094,0,0,1,1.094-1.094h2.992a1.094,1.094,0,0,1,1.094,1.094v2.992A1.094,1.094,0,0,1,253.935,342.82Z" transform="translate(-249.849 -337.641)" fill="#2a445d"/>
            </g>
          </g>
        </g>
      </g>
      <g id="Group_2017" data-name="Group 2017" transform="translate(32.105 22.53)">
        <g id="Group_2016" data-name="Group 2016">
          <g id="Group_2015" data-name="Group 2015">
            <g id="Group_2014" data-name="Group 2014">
              <path id="Path_918" data-name="Path 918" d="M260.777,342.82h-2.993a1.094,1.094,0,0,1-1.094-1.094v-2.992a1.094,1.094,0,0,1,1.094-1.094h2.993a1.094,1.094,0,0,1,1.094,1.094v2.992A1.094,1.094,0,0,1,260.777,342.82Z" transform="translate(-256.691 -337.641)" fill="#2a445d"/>
            </g>
          </g>
        </g>
      </g>
      <g id="Group_2021" data-name="Group 2021" transform="translate(25.89 16.119)">
        <g id="Group_2020" data-name="Group 2020">
          <g id="Group_2019" data-name="Group 2019">
            <g id="Group_2018" data-name="Group 2018">
              <path id="Path_919" data-name="Path 919" d="M253.935,335.762h-2.992a1.094,1.094,0,0,1-1.094-1.094v-2.992a1.094,1.094,0,0,1,1.094-1.094h2.992a1.094,1.094,0,0,1,1.094,1.094v2.992A1.094,1.094,0,0,1,253.935,335.762Z" transform="translate(-249.849 -330.583)" fill="#2a445d"/>
            </g>
          </g>
        </g>
      </g>
      <g id="Group_2025" data-name="Group 2025" transform="translate(32.105 16.119)">
        <g id="Group_2024" data-name="Group 2024">
          <g id="Group_2023" data-name="Group 2023">
            <g id="Group_2022" data-name="Group 2022">
              <path id="Path_920" data-name="Path 920" d="M260.777,335.762h-2.993a1.094,1.094,0,0,1-1.094-1.094v-2.992a1.094,1.094,0,0,1,1.094-1.094h2.993a1.094,1.094,0,0,1,1.094,1.094v2.992A1.094,1.094,0,0,1,260.777,335.762Z" transform="translate(-256.691 -330.583)" fill="#2a445d"/>
            </g>
          </g>
        </g>
      </g>
      <g id="Group_2029" data-name="Group 2029" transform="translate(16.04 29.435)">
        <g id="Group_2028" data-name="Group 2028">
          <g id="Group_2027" data-name="Group 2027">
            <g id="Group_2026" data-name="Group 2026">
              <path id="Path_921" data-name="Path 921" d="M243.09,350.423H240.1A1.094,1.094,0,0,1,239,349.33v-2.992a1.094,1.094,0,0,1,1.094-1.094h2.993a1.094,1.094,0,0,1,1.094,1.094v2.992A1.094,1.094,0,0,1,243.09,350.423Z" transform="translate(-239.004 -345.244)" fill="#2a445d"/>
            </g>
          </g>
        </g>
      </g>
      <g id="Group_2033" data-name="Group 2033" transform="translate(3.415 35.715)">
        <g id="Group_2032" data-name="Group 2032">
          <g id="Group_2031" data-name="Group 2031">
            <g id="Group_2030" data-name="Group 2030">
              <path id="Path_922" data-name="Path 922" d="M229.191,357.337H226.2a1.094,1.094,0,0,1-1.094-1.094v-2.992a1.094,1.094,0,0,1,1.094-1.094h2.993a1.094,1.094,0,0,1,1.094,1.094v2.992A1.094,1.094,0,0,1,229.191,357.337Z" transform="translate(-225.105 -352.158)" fill="#2a445d"/>
            </g>
          </g>
        </g>
      </g>
      <g id="Group_2037" data-name="Group 2037" transform="translate(9.826 35.715)">
        <g id="Group_2036" data-name="Group 2036">
          <g id="Group_2035" data-name="Group 2035">
            <g id="Group_2034" data-name="Group 2034">
              <path id="Path_923" data-name="Path 923" d="M236.249,357.337h-2.992a1.094,1.094,0,0,1-1.094-1.094v-2.992a1.094,1.094,0,0,1,1.094-1.094h2.992a1.094,1.094,0,0,1,1.094,1.094v2.992A1.1,1.1,0,0,1,236.249,357.337Z" transform="translate(-232.163 -352.158)" fill="#2a445d"/>
            </g>
          </g>
        </g>
      </g>
      <g id="Group_2041" data-name="Group 2041" transform="translate(16.04 35.715)">
        <g id="Group_2040" data-name="Group 2040">
          <g id="Group_2039" data-name="Group 2039">
            <g id="Group_2038" data-name="Group 2038">
              <path id="Path_924" data-name="Path 924" d="M243.09,357.337H240.1A1.094,1.094,0,0,1,239,356.244v-2.992a1.094,1.094,0,0,1,1.094-1.094h2.993a1.094,1.094,0,0,1,1.094,1.094v2.992A1.094,1.094,0,0,1,243.09,357.337Z" transform="translate(-239.004 -352.158)" fill="#2a445d"/>
            </g>
          </g>
        </g>
      </g>
      <g id="Group_2045" data-name="Group 2045" transform="translate(25.557 35.651)">
        <g id="Group_2044" data-name="Group 2044">
          <g id="Group_2043" data-name="Group 2043">
            <g id="Group_2042" data-name="Group 2042">
              <path id="Path_925" data-name="Path 925" d="M260.449,357.266h-9.873a1.094,1.094,0,0,1-1.094-1.094v-2.992a1.094,1.094,0,0,1,1.094-1.094h9.873a1.094,1.094,0,0,1,1.094,1.094v2.992A1.094,1.094,0,0,1,260.449,357.266Z" transform="translate(-249.482 -352.087)" fill="#ff7443"/>
            </g>
          </g>
        </g>
      </g>
      <g id="Group_2049" data-name="Group 2049" transform="translate(25.557 29.184)">
        <g id="Group_2048" data-name="Group 2048">
          <g id="Group_2047" data-name="Group 2047">
            <g id="Group_2046" data-name="Group 2046">
              <path id="Path_926" data-name="Path 926" d="M260.449,350.146h-9.873a1.094,1.094,0,0,1-1.094-1.094v-2.992a1.094,1.094,0,0,1,1.094-1.094h9.873a1.094,1.094,0,0,1,1.094,1.094v2.992A1.094,1.094,0,0,1,260.449,350.146Z" transform="translate(-249.482 -344.967)" fill="#1ed9de"/>
            </g>
          </g>
        </g>
      </g>
    </g>
    <g id="XMLID_27_" transform="translate(167.496 222.242)">
      <g id="XMLID_32_" transform="translate(0 0)">
        <g id="Group_2053" data-name="Group 2053">
          <g id="Group_2052" data-name="Group 2052">
            <g id="Group_2051" data-name="Group 2051">
              <path id="Path_927" data-name="Path 927" d="M190.078,232.818c6.075,0,11,4.248,11,9.489a9.141,9.141,0,0,1-4.509,7.662l1.55,3.918-3.8-2.822a12.472,12.472,0,0,1-4.243.732c-6.075,0-11-4.248-11-9.49S184,232.818,190.078,232.818Z" transform="translate(-179.078 -232.818)" fill="#fff" fill-rule="evenodd"/>
            </g>
          </g>
        </g>
      </g>
      <g id="XMLID_28_" transform="translate(4.698 8.185)">
        <g id="XMLID_31_" transform="translate(9.622)">
          <g id="Group_2056" data-name="Group 2056">
            <g id="Group_2055" data-name="Group 2055">
              <g id="Group_2054" data-name="Group 2054">
                <circle id="Ellipse_102" data-name="Ellipse 102" cx="1.491" cy="1.491" r="1.491" fill="#cfe2f1"/>
              </g>
            </g>
          </g>
        </g>
        <g id="XMLID_30_" transform="translate(4.811)">
          <g id="Group_2059" data-name="Group 2059">
            <g id="Group_2058" data-name="Group 2058">
              <g id="Group_2057" data-name="Group 2057">
                <circle id="Ellipse_103" data-name="Ellipse 103" cx="1.491" cy="1.491" r="1.491" fill="#cfe2f1"/>
              </g>
            </g>
          </g>
        </g>
        <g id="XMLID_29_">
          <g id="Group_2062" data-name="Group 2062">
            <g id="Group_2061" data-name="Group 2061">
              <g id="Group_2060" data-name="Group 2060">
                <path id="Path_928" data-name="Path 928" d="M185.741,244.811a1.491,1.491,0,1,1,1.491-1.491A1.495,1.495,0,0,1,185.741,244.811Z" transform="translate(-184.25 -241.829)" fill="#cfe2f1" fill-rule="evenodd"/>
              </g>
            </g>
          </g>
        </g>
      </g>
    </g>
    <g id="XMLID_33_" transform="translate(158.585 206.979)">
      <g id="XMLID_38_">
        <g id="Group_2065" data-name="Group 2065">
          <g id="Group_2064" data-name="Group 2064">
            <g id="Group_2063" data-name="Group 2063">
              <path id="Path_929" data-name="Path 929" d="M180.266,216.014c-6.075,0-11,4.248-11,9.489a9.141,9.141,0,0,0,4.508,7.662l-1.549,3.918,3.8-2.822a12.472,12.472,0,0,0,4.243.732c6.075,0,11-4.248,11-9.49S186.34,216.014,180.266,216.014Z" transform="translate(-169.267 -216.014)" fill="#ffd55c" fill-rule="evenodd"/>
            </g>
          </g>
        </g>
      </g>
      <g id="XMLID_34_" transform="translate(4.697 8.185)">
        <g id="XMLID_37_">
          <g id="Group_2068" data-name="Group 2068">
            <g id="Group_2067" data-name="Group 2067">
              <g id="Group_2066" data-name="Group 2066">
                <path id="Path_930" data-name="Path 930" d="M175.929,228.007a1.491,1.491,0,1,0-1.491-1.491A1.494,1.494,0,0,0,175.929,228.007Z" transform="translate(-174.438 -225.025)" fill="#2a445d" fill-rule="evenodd"/>
              </g>
            </g>
          </g>
        </g>
        <g id="XMLID_1_" transform="translate(4.811 0.001)">
          <g id="Group_2071" data-name="Group 2071">
            <g id="Group_2070" data-name="Group 2070">
              <g id="Group_2069" data-name="Group 2069">
                <circle id="Ellipse_104" data-name="Ellipse 104" cx="1.491" cy="1.491" r="1.491" fill="#2a445d"/>
              </g>
            </g>
          </g>
        </g>
        <g id="XMLID_35_" transform="translate(9.622)">
          <g id="Group_2074" data-name="Group 2074">
            <g id="Group_2073" data-name="Group 2073">
              <g id="Group_2072" data-name="Group 2072">
                <path id="Path_931" data-name="Path 931" d="M186.522,228.007a1.491,1.491,0,1,0-1.491-1.491A1.495,1.495,0,0,0,186.522,228.007Z" transform="translate(-185.031 -225.025)" fill="#2a445d" fill-rule="evenodd"/>
              </g>
            </g>
          </g>
        </g>
      </g>
    </g>
    <g id="Group_2079" data-name="Group 2079" transform="translate(182.999 154.193)">
      <g id="Group_2075" data-name="Group 2075" transform="translate(0 14.295)">
        <rect id="Rectangle_448" data-name="Rectangle 448" width="4.466" height="12.417" fill="#06b3b9"/>
      </g>
      <g id="Group_2076" data-name="Group 2076" transform="translate(7.874 9.702)">
        <rect id="Rectangle_449" data-name="Rectangle 449" width="4.466" height="17.012" fill="#50667e"/>
      </g>
      <g id="Group_2077" data-name="Group 2077" transform="translate(15.748 4.868)">
        <rect id="Rectangle_450" data-name="Rectangle 450" width="4.466" height="21.845" fill="#ffd55c"/>
      </g>
      <g id="Group_2078" data-name="Group 2078" transform="translate(23.623 0)">
        <rect id="Rectangle_451" data-name="Rectangle 451" width="4.466" height="26.712" fill="#ff7443"/>
      </g>
    </g>
  </g>
</svg>
