<svg xmlns="http://www.w3.org/2000/svg" width="306.001" height="43.958" viewBox="0 0 306.001 43.958">
  <g id="Logo_dark" transform="translate(-11564 139)">
    <g id="Group_2514" data-name="Group 2514" transform="translate(11730.174 -138.716)">
      <path id="Path_1" data-name="Path 1" d="M263.643,11.145H253.062V38.769h-5.823V11.145H236.8V6.6h26.843Z" transform="translate(-236.8 -4.754)" fill="#5596bd"/>
      <path id="Path_2" data-name="Path 2" d="M289.838,23.026a11.844,11.844,0,0,0-2.272-.142c-2.557,0-4.332.923-5.255,2.841V42.058H276.7V18.126h5.4l.142,2.7A6.48,6.48,0,0,1,287.92,17.7a5.357,5.357,0,0,1,1.988.284Z" transform="translate(-248.365 -7.971)" fill="#5596bd"/>
      <path id="Path_3" data-name="Path 3" d="M312.536,41.958a7.546,7.546,0,0,1-.639-2.2,9,9,0,0,1-6.6,2.7,9.136,9.136,0,0,1-6.178-2.059,6.5,6.5,0,0,1-2.414-5.042,6.788,6.788,0,0,1,2.983-5.894c1.988-1.349,4.829-2.059,8.522-2.059h3.48V25.838a4.264,4.264,0,0,0-1.065-2.983,4.609,4.609,0,0,0-3.338-1.136,4.815,4.815,0,0,0-3.125.923,2.772,2.772,0,0,0-1.207,2.343h-5.61a5.791,5.791,0,0,1,1.349-3.693,8.877,8.877,0,0,1,3.764-2.7,13.855,13.855,0,0,1,5.255-.994,10.921,10.921,0,0,1,7.03,2.13,7.4,7.4,0,0,1,2.7,5.894V36.419a11.554,11.554,0,0,0,.923,5.113v.355h-5.823Zm-6.178-3.835a6.789,6.789,0,0,0,3.125-.781,5.166,5.166,0,0,0,2.2-2.059V30.809H308.63a8.317,8.317,0,0,0-4.687,1.065,3.32,3.32,0,0,0-1.562,2.912,3.122,3.122,0,0,0,1.065,2.486A5.057,5.057,0,0,0,306.358,38.123Z" transform="translate(-254.163 -7.942)" fill="#5596bd"/>
      <path id="Path_4" data-name="Path 4" d="M331.3,25.93a13.924,13.924,0,0,1,2.7-8.877,8.837,8.837,0,0,1,7.243-3.338,8.3,8.3,0,0,1,6.462,2.628V4.2h5.61V38.074H348.2l-.284-2.485a8.651,8.651,0,0,1-6.746,2.912A8.846,8.846,0,0,1,334,35.091C332.223,32.89,331.3,29.836,331.3,25.93Zm5.681.5a9.477,9.477,0,0,0,1.491,5.681,4.961,4.961,0,0,0,4.19,2.059,5.415,5.415,0,0,0,5.042-2.912V21.03a5.287,5.287,0,0,0-5.042-2.841,5,5,0,0,0-4.261,2.059A11.023,11.023,0,0,0,336.981,26.427Z" transform="translate(-264.192 -4.058)" fill="#5596bd"/>
      <path id="Path_5" data-name="Path 5" d="M379.972,42.384a12.26,12.26,0,0,1-8.735-3.2,11.337,11.337,0,0,1-3.338-8.522v-.71a14.117,14.117,0,0,1,1.42-6.391,11.535,11.535,0,0,1,4.048-4.4,11.02,11.02,0,0,1,5.823-1.562,10.32,10.32,0,0,1,7.954,3.125c1.846,2.059,2.77,5.042,2.77,8.806v2.13h-16.4a6.859,6.859,0,0,0,2.059,4.687,6.505,6.505,0,0,0,4.616,1.7,7.838,7.838,0,0,0,6.32-2.983l3.054,2.77a9.883,9.883,0,0,1-4.048,3.338A11.573,11.573,0,0,1,379.972,42.384Zm-.71-20.452a4.83,4.83,0,0,0-3.764,1.562,8.389,8.389,0,0,0-1.846,4.332h10.723V27.4a6.578,6.578,0,0,0-1.491-4.048A4.7,4.7,0,0,0,379.262,21.932Z" transform="translate(-274.8 -7.942)" fill="#5596bd"/>
      <path id="Path_6" data-name="Path 6" d="M417.038,23.026a11.844,11.844,0,0,0-2.272-.142c-2.557,0-4.332.923-5.255,2.841V42.058H403.9V18.126h5.4l.142,2.7A6.48,6.48,0,0,1,415.12,17.7a5.357,5.357,0,0,1,1.988.284Z" transform="translate(-285.235 -7.971)" fill="#5596bd"/>
      <path id="Path_7" data-name="Path 7" d="M422.7,7.906a3.939,3.939,0,0,1,.5-1.988,3.89,3.89,0,0,1,1.42-1.42,4.225,4.225,0,0,1,3.977,0,3.891,3.891,0,0,1,1.42,1.42,3.939,3.939,0,0,1,.5,1.988,3.939,3.939,0,0,1-.5,1.988,3.891,3.891,0,0,1-1.42,1.42,4.225,4.225,0,0,1-3.977,0,3.89,3.89,0,0,1-1.42-1.42A4.837,4.837,0,0,1,422.7,7.906Zm7.172,0a3.3,3.3,0,0,0-.426-1.633,2.829,2.829,0,0,0-1.207-1.207,3.3,3.3,0,1,0,1.633,2.841Zm-4.048.426v1.775h-.852V5.562h1.562a2.526,2.526,0,0,1,1.349.355,1.243,1.243,0,0,1,.5.994.978.978,0,0,1-.639.923,1,1,0,0,1,.5.426,2.1,2.1,0,0,1,.142.71V9.61c0,.142.071.213.071.284v.071H427.6a2.969,2.969,0,0,1-.071-.994.7.7,0,0,0-.213-.568c-.142-.142-.355-.142-.639-.142h-.852Zm0-.71h.781a1.418,1.418,0,0,0,.639-.142c.142-.142.284-.284.284-.426a.553.553,0,0,0-.213-.5,1.528,1.528,0,0,0-.71-.142h-.781Z" transform="translate(-290.685 -4)" fill="#5596bd"/>
    </g>
    <g id="Briefing_gradient_4_" transform="translate(11564 -139)">
      <path id="Path_8" data-name="Path 8" d="M2.8,38.769V6.6H14.375c3.835,0,6.746.71,8.735,2.2a7.6,7.6,0,0,1,2.983,6.533,6.644,6.644,0,0,1-1.278,3.977,8.338,8.338,0,0,1-3.693,2.77,7.7,7.7,0,0,1,4.261,2.628A7.4,7.4,0,0,1,26.874,29.4a8.373,8.373,0,0,1-3.054,6.959c-2.059,1.633-4.971,2.414-8.735,2.414H2.8ZM8.694,20.164h5.752a6.763,6.763,0,0,0,4.261-1.207,3.893,3.893,0,0,0,1.562-3.338,3.958,3.958,0,0,0-1.42-3.409,7.4,7.4,0,0,0-4.474-1.065H8.694v9.019Zm0,4.119V34.3h6.533a6.7,6.7,0,0,0,4.332-1.278A4.347,4.347,0,0,0,21.122,29.4c0-3.338-1.775-5.042-5.4-5.113Z" transform="translate(-2.8 -4.47)" fill="#5596bd"/>
      <path id="Path_9" data-name="Path 9" d="M56.138,23.026a11.844,11.844,0,0,0-2.272-.142c-2.557,0-4.332.923-5.255,2.841V42.058H43V18.126h5.4l.142,2.7A6.48,6.48,0,0,1,54.22,17.7a5.357,5.357,0,0,1,1.988.284Z" transform="translate(-14.452 -7.687)" fill="#5596bd"/>
      <path id="Path_10" data-name="Path 10" d="M65.2,8.341a2.732,2.732,0,0,1,.852-2.059A3.133,3.133,0,0,1,68.4,5.5a3.325,3.325,0,0,1,2.343.781,2.888,2.888,0,0,1,.852,2.059,2.579,2.579,0,0,1-.852,1.988,3.133,3.133,0,0,1-2.343.781,3.451,3.451,0,0,1-2.343-.781A2.478,2.478,0,0,1,65.2,8.341Zm5.965,30.11h-5.61V14.59h5.61Z" transform="translate(-20.887 -4.151)" fill="#5596bd"/>
      <path id="Path_11" data-name="Path 11" d="M91.572,42.384a12.26,12.26,0,0,1-8.735-3.2A11.337,11.337,0,0,1,79.5,30.667v-.71a14.117,14.117,0,0,1,1.42-6.391,11.535,11.535,0,0,1,4.048-4.4A11.02,11.02,0,0,1,90.791,17.6a10.32,10.32,0,0,1,7.954,3.125c1.846,2.059,2.77,5.042,2.77,8.806v2.13H85.252a6.859,6.859,0,0,0,2.059,4.687,6.505,6.505,0,0,0,4.616,1.7,7.838,7.838,0,0,0,6.32-2.983l3.054,2.77a9.883,9.883,0,0,1-4.048,3.338A12.355,12.355,0,0,1,91.572,42.384Zm-.639-20.452a4.83,4.83,0,0,0-3.764,1.562,8.389,8.389,0,0,0-1.846,4.332H96.046V27.4a6.579,6.579,0,0,0-1.491-4.048A4.7,4.7,0,0,0,90.933,21.932Z" transform="translate(-25.032 -7.658)" fill="#5596bd"/>
      <path id="Path_12" data-name="Path 12" d="M116.735,37.9V18.016H112.9V14.039h3.835v-2.2a7.868,7.868,0,0,1,2.343-6.107,9.28,9.28,0,0,1,6.533-2.13,12.237,12.237,0,0,1,3.125.426l-.142,4.119A10.06,10.06,0,0,0,126.464,8c-2.7,0-4.048,1.349-4.048,3.977v2.13h8.664v3.977h-8.664V37.971h-5.681Z" transform="translate(-34.713 -3.6)" fill="#5596bd"/>
      <path id="Path_13" data-name="Path 13" d="M138,8.341a2.732,2.732,0,0,1,.852-2.059A3.133,3.133,0,0,1,141.2,5.5a3.325,3.325,0,0,1,2.343.781,2.888,2.888,0,0,1,.852,2.059,2.579,2.579,0,0,1-.852,1.988,3.133,3.133,0,0,1-2.343.781,3.451,3.451,0,0,1-2.343-.781A2.478,2.478,0,0,1,138,8.341Zm5.965,30.11h-5.61V14.59h5.61Z" transform="translate(-41.989 -4.151)" fill="#5596bd"/>
      <path id="Path_14" data-name="Path 14" d="M158.926,18.126l.142,2.77a9.272,9.272,0,0,1,7.314-3.2c5.255,0,7.883,2.841,8.025,8.522V41.987H168.8V26.506a4.6,4.6,0,0,0-1.065-3.338,4.669,4.669,0,0,0-3.409-1.065,5.6,5.6,0,0,0-5.113,2.912V41.987H153.6V18.126Z" transform="translate(-46.511 -7.687)" fill="#5596bd"/>
      <path id="Path_15" data-name="Path 15" d="M188.2,29.814c0-3.693.923-6.675,2.77-8.877a9.073,9.073,0,0,1,7.314-3.338,8.4,8.4,0,0,1,6.746,2.841l.284-2.414h5.113V41.177a9.241,9.241,0,0,1-3.054,7.385,12.3,12.3,0,0,1-8.309,2.7,14.331,14.331,0,0,1-5.4-1.065,9.127,9.127,0,0,1-3.977-2.841l2.7-3.2a8.106,8.106,0,0,0,6.391,2.912,6.555,6.555,0,0,0,4.4-1.42,5.562,5.562,0,0,0,1.633-4.261V39.756a8.557,8.557,0,0,1-6.533,2.557,9.231,9.231,0,0,1-7.243-3.338C189.194,36.845,188.2,33.791,188.2,29.814Zm5.681.5a9.145,9.145,0,0,0,1.562,5.681,5.092,5.092,0,0,0,4.261,2.059,5.425,5.425,0,0,0,5.042-2.77V24.772a5.5,5.5,0,0,0-5.042-2.7,5.014,5.014,0,0,0-4.332,2.13C194.378,25.554,193.881,27.613,193.881,30.312Z" transform="translate(-56.54 -7.658)" fill="#5596bd"/>
      <path id="Path_16" data-name="Path 16" d="M404,65.326a9.65,9.65,0,0,1-2.7-.426" transform="translate(-118.309 -21.368)" fill="#5596bd"/>
    </g>
  </g>
</svg>
