<svg xmlns="http://www.w3.org/2000/svg" width="30.09" height="22.457" viewBox="0 0 30.09 22.457">
  <path id="quote" d="M32.925,13.082l-.038-.252-.039.009A6.75,6.75,0,1,0,26.25,21a6.641,6.641,0,0,0,.975-.1,5.408,5.408,0,0,1-.381,1.02,6.31,6.31,0,0,1-.7,1.266,7.466,7.466,0,0,1-.9,1.1A10.03,10.03,0,0,1,24.2,25.2a6.4,6.4,0,0,1-1.071.695,5.658,5.658,0,0,1-.975.525l-.808.333-.711.3.726,2.909.9-.216c.286-.072.636-.156,1.033-.257a8.074,8.074,0,0,0,1.323-.468,9.288,9.288,0,0,0,1.542-.7,14.082,14.082,0,0,0,1.636-1.038,11.756,11.756,0,0,0,1.575-1.416,10.545,10.545,0,0,0,1.364-1.743,12.16,12.16,0,0,0,1.053-1.948,16.5,16.5,0,0,0,.7-2,18.108,18.108,0,0,0,.576-3.655,18.7,18.7,0,0,0-.042-2.621q-.032-.406-.095-.808Zm-16.5,0-.038-.252-.039.009A6.75,6.75,0,1,0,9.75,21a6.641,6.641,0,0,0,.975-.1,5.408,5.408,0,0,1-.381,1.02,6.31,6.31,0,0,1-.7,1.266,7.466,7.466,0,0,1-.9,1.1A10.03,10.03,0,0,1,7.7,25.2a6.4,6.4,0,0,1-1.071.695,5.658,5.658,0,0,1-.975.525l-.808.333c-.452.184-.71.292-.71.292l.726,2.909.895-.216c.286-.072.636-.156,1.033-.257a8.074,8.074,0,0,0,1.323-.468,9.288,9.288,0,0,0,1.542-.7,14.082,14.082,0,0,0,1.636-1.038,11.756,11.756,0,0,0,1.575-1.416,10.545,10.545,0,0,0,1.364-1.743,12.16,12.16,0,0,0,1.053-1.948,16.5,16.5,0,0,0,.7-2,18.108,18.108,0,0,0,.576-3.655,18.7,18.7,0,0,0-.042-2.621q-.034-.4-.1-.806Z" transform="translate(-2.997 -7.499)" fill="#5596bd"/>
</svg>
